<?xml version="1.0" encoding="UTF-8"?>
<svg width="199pt" height="90pt" version="1.1" viewBox="0 0 199 90" xmlns="http://www.w3.org/2000/svg" xmlns:cc="http://creativecommons.org/ns#" xmlns:dc="http://purl.org/dc/elements/1.1/" xmlns:osb="http://www.openswatchbook.org/uri/2009/osb" xmlns:rdf="http://www.w3.org/1999/02/22-rdf-syntax-ns#">
 <metadata>
  <rdf:RDF>
   <cc:Work rdf:about="">
    <dc:format>image/svg+xml</dc:format>
    <dc:type rdf:resource="http://purl.org/dc/dcmitype/StillImage"/>
    <dc:title/>
   </cc:Work>
  </rdf:RDF>
 </metadata>
 <g transform="translate(-1.2061 -1.0051)">
  <path d="m50.674 57.404v-26.949h-0.57812v-2.9727c-0.0039-0.37109-0.05859-0.60547-0.22266-0.98438-0.03906-0.09375-0.09766-0.19922-0.16406-0.30469v-1.0703s-0.0039-0.84375-0.34766-1.4805c-0.37891-0.69141-1.1094-1.0703-1.4648-1.2188-0.08203-0.03906-0.13672-0.05859-0.14453-0.05859l-0.05859-0.01953-0.07422 0.01953c-0.03906 0.0078-0.61719 0.19141-1.1641 0.94531-0.5 0.69141-0.51562 1.5742-0.51953 1.8203v0.06641 0.98828c-0.06641 0.09766-0.16016 0.24609-0.26172 0.46484-0.15234 0.375-0.16406 0.72656-0.16797 0.9375v2.8672h-0.57813v9.8398l-1.5859-1.5938v-2.8086l-0.53906-1.8125-0.78516-6.2188-0.58203 5.957-0.53906 2.0742v2.6016l-1.5703 1.5781v-9.6172h-0.57422v-2.9727c-0.0078-0.37109-0.05859-0.60547-0.22266-0.98438-0.04297-0.09375-0.10156-0.19922-0.16797-0.30469v-1.0703s0-0.84375-0.34766-1.4805c-0.375-0.69141-1.1094-1.0703-1.4648-1.2188-0.08203-0.03906-0.13281-0.05859-0.14453-0.05859l-0.05859-0.01953-0.07422 0.01953c-0.03516 0.0078-0.61328 0.19141-1.1641 0.94531-0.5 0.69141-0.51562 1.5742-0.51953 1.8203v0.06641 0.98828c-0.06641 0.09766-0.16016 0.24609-0.25781 0.46484-0.15625 0.375-0.16406 0.72656-0.17188 0.9375v2.8672h-0.57813v26.949h-14.094c-1.9727-3.6445-3.0977-7.8242-3.0977-12.266 0-7.1094 2.8672-13.543 7.5039-18.207 4.6406-4.6562 11.047-7.5391 18.125-7.5391 7.0742 0 13.48 2.8828 18.121 7.5391 4.6367 4.6641 7.5078 11.098 7.5078 18.207 0 4.4414-1.125 8.6211-3.0977 12.266zm-0.70312 0h-4.5664v-6.1055h4.5664zm0-6.5039h-4.5664v-3.6094h4.5664zm0-4.0039h-4.5664v-5.5352h4.5664zm-1.4102-8.25v2.3164h-1.7422v-2.3203c0-0.44922 0.16016-0.80859 0.42188-1.0586 0.125-0.125 0.27734-0.21484 0.44922-0.28125 0.17188 0.06641 0.32031 0.15625 0.44922 0.28125 0.26172 0.25 0.42188 0.60938 0.42188 1.0586zm1.4102-2.332v4.6484h-1.0156v-2.3203c0-0.54688-0.20312-1.0195-0.54297-1.3438-0.18359-0.17578-0.39844-0.30859-0.63672-0.39062-0.01172-0.0039-0.08594-0.02734-0.08594-0.02734s-0.07031 0.02344-0.07813 0.02734c-0.24219 0.08203-0.46094 0.21484-0.64453 0.39062-0.33984 0.32422-0.54688 0.80078-0.54297 1.3438v2.3203h-1.0195v-4.6484zm-1.5-2.043v1.6484h-1.5625v-1.6484c0.0039-0.63672 0.31641-1.0742 0.78125-1.2812 0.46484 0.20313 0.77734 0.64453 0.78125 1.2812m1.5-2.0117v3.6602h-1.1055v-1.6484c0-0.54297-0.19922-1.0078-0.53125-1.3242-0.17969-0.17188-0.39063-0.30078-0.62891-0.38281-0.01563-0.0039-0.01172-0.0039-0.01172-0.0039s-0.0039 0-0.01953 0.0039c-0.23828 0.08203-0.45312 0.21094-0.62891 0.38281-0.33203 0.31641-0.53125 0.78125-0.53125 1.3242v1.6484h-1.1094v-3.6602zm0-0.39453h-4.5664v-0.9375h4.5664zm-3.3828-5.0508c0.10547 0.25781 0.125 0.53906 0.125 0.73828l0.0039 2.9023h-0.73438v-2.9062c0.0039-0.19531 0.02734-0.46094 0.13672-0.73047 0.07813-0.17578 0.15625-0.32031 0.22656-0.42188 0.08203 0.125 0.16016 0.24219 0.24219 0.41797m1.6641 0.75781v2.8828h-1.1289v-2.8867c0.01172-0.1875 0.02344-0.44922 0.16016-0.71875 0.14062-0.28125 0.41016-0.44922 0.41016-0.44922s0.25391 0.16797 0.39844 0.44922c0.14062 0.28516 0.15234 0.52734 0.16016 0.72266m0.78125-1.1719c0.07031 0.09766 0.14453 0.24219 0.22656 0.41797 0.10938 0.27344 0.13672 0.53906 0.14062 0.73437v2.9023h-0.74219v-2.9023c0.0039-0.19922 0.03906-0.47656 0.14453-0.73437 0.08984-0.20703 0.16406-0.32031 0.23047-0.41797m-2.6016-1.4414c0.01953-0.32422 0.10547-0.9375 0.41797-1.3555 0.23828-0.32422 0.47266-0.51562 0.64453-0.62891 0.08203-0.05078 0.14453-0.08203 0.19141-0.10547 0.04687 0.02344 0.10938 0.05469 0.1875 0.10547 0.17188 0.11328 0.41016 0.30469 0.64453 0.62891 0.3125 0.41797 0.39844 1.0312 0.41797 1.3555zm2.5117 0.39453v0.21875c-0.0078 0.04297-0.01953 0.10547-0.04297 0.16797-0.03516 0.09766-0.12891 0.25391-0.25 0.44922-0.04687 0.07422-0.12891 0.19922-0.21875 0.38281-0.11719-0.17969-0.21484-0.29688-0.28515-0.37109-0.07422-0.08203-0.17969-0.1875-0.26172-0.28516-0.18359-0.21875-0.19141-0.34766-0.19141-0.34766s-0.0078 0.12891-0.19141 0.34766c-0.08203 0.09766-0.1875 0.20312-0.26172 0.28516-0.07422 0.07422-0.17188 0.19531-0.28906 0.37891-0.09375-0.1875-0.17578-0.31641-0.22656-0.39453-0.12109-0.19141-0.21094-0.35156-0.25-0.44922-0.03516-0.09375-0.04687-0.20703-0.04687-0.21484v-0.16797zm-4.0156 32.051h-5.8359v-6.1055h5.8359zm-3.9961-10.113v2.3242h2.1719v-2.3242h1.8242v3.6094h-5.8359v-3.6094zm3.9961-3.0039v2.6094h-1.8242v-0.65625c0-0.59766-0.48438-1.0898-1.0859-1.0898-0.60156 0-1.0859 0.49219-1.0859 1.0898v0.65625h-1.8398v-2.6094zm0-0.69141h-5.8359v-2.2344h5.8359zm-2.9102-5.5547 2.9062 2.9219h-5.8125zm-0.60938-2.1602 0.46094-1.9766 0.1875-3.3008 0.11328 3.3008 0.45703 1.9766zm1.2383 0.47266v1.6484l-0.62891-0.63281-0.62891 0.63281v-1.6484zm-4.0195 21.051h-4.5703v-6.1055h4.5703zm0-6.5039h-4.5703v-3.6094h4.5703zm0-4.0039h-4.5703v-5.5352h4.5703zm-1.4102-8.25v2.3164h-1.7461v-2.3203c0-0.44922 0.16406-0.80859 0.42188-1.0586 0.12891-0.125 0.28125-0.21484 0.44922-0.28125 0.17188 0.06641 0.32422 0.15625 0.44922 0.28125 0.26172 0.25 0.42578 0.60938 0.42578 1.0586zm1.4102-2.332v4.6484h-1.0156v-2.3203c0-0.54688-0.20703-1.0195-0.54688-1.3438-0.18359-0.17578-0.39844-0.30859-0.63672-0.39062-0.01172-0.0039-0.08594-0.02734-0.08594-0.02734s-0.07031 0.02344-0.07813 0.02734c-0.23828 0.08203-0.46094 0.21484-0.64453 0.39062-0.33984 0.32422-0.54297 0.80078-0.54297 1.3438v2.3203h-1.0195v-4.6484zm-1.5-2.043v1.6484h-1.5664v-1.6484c0.0039-0.63672 0.31641-1.0742 0.78125-1.2812 0.46484 0.20313 0.77734 0.64453 0.78516 1.2812m1.5-2.0117v3.6602h-1.1094v-1.6484c0.0039-0.54297-0.19922-1.0078-0.53125-1.3242-0.17578-0.17188-0.39062-0.30078-0.62891-0.38281-0.01563-0.0039-0.01172-0.0039-0.01172-0.0039s-0.0039 0-0.01953 0.0039c-0.23438 0.08203-0.44922 0.21094-0.62891 0.38281-0.33203 0.31641-0.53125 0.78125-0.53125 1.3242v1.6484h-1.1094v-3.6602zm0-0.39453h-4.5703v-0.9375h4.5703zm-3.3867-5.0508c0.10547 0.25781 0.125 0.53906 0.12891 0.73828l0.0039 2.9023h-0.73828v-2.9062c0.0039-0.19531 0.02734-0.46094 0.13672-0.73047 0.08203-0.17578 0.16016-0.32031 0.22656-0.42188 0.08203 0.125 0.16406 0.24219 0.24219 0.41797m1.668 0.75781-0.0039 2.8828h-1.125c0-0.80469-0.0039-2.8828-0.0039-2.8867 0.01172-0.1875 0.02734-0.44922 0.16016-0.71875 0.14453-0.28125 0.41016-0.44922 0.41016-0.44922s0.25781 0.16797 0.39844 0.44922c0.14062 0.28516 0.15625 0.52734 0.16406 0.72266m0.77734-1.1719c0.07031 0.09766 0.14453 0.24219 0.22656 0.41797 0.10938 0.27344 0.14063 0.53906 0.14453 0.73437v2.9023h-0.74609v-2.9023c0.0039-0.19922 0.03906-0.47656 0.14453-0.73437 0.08984-0.20703 0.16406-0.32031 0.23047-0.41797m-2.6016-1.4414c0.01953-0.32422 0.10937-0.9375 0.42187-1.3555 0.23828-0.32422 0.47266-0.51562 0.64453-0.62891 0.07813-0.05078 0.14062-0.08203 0.1875-0.10547 0.04687 0.02344 0.10938 0.05469 0.1875 0.10547 0.17188 0.11328 0.41016 0.30469 0.64844 0.62891 0.30859 0.41797 0.39844 1.0312 0.41797 1.3555zm2.5117 0.39453v0.21875c-0.0078 0.04297-0.01953 0.10547-0.03906 0.16797-0.03906 0.09766-0.12891 0.25391-0.25391 0.44922-0.04297 0.07422-0.125 0.19922-0.21484 0.38281-0.11719-0.17969-0.21875-0.29688-0.28516-0.37109-0.07813-0.08203-0.17969-0.1875-0.26563-0.28516-0.18359-0.21875-0.19141-0.34766-0.19141-0.34766s-0.0078 0.12891-0.1875 0.34766c-0.08594 0.09766-0.1875 0.20312-0.26562 0.28516-0.07031 0.07422-0.17188 0.19531-0.28906 0.37891-0.09375-0.1875-0.17578-0.31641-0.22266-0.39453-0.12109-0.19141-0.21484-0.35156-0.25-0.44922-0.03516-0.09375-0.05078-0.20312-0.05078-0.21484v-0.16797zm26.363 33.09h-43.883c-0.12891-0.21094-0.25391-0.42578-0.375-0.64063h44.629c-0.12109 0.21484-0.24219 0.42969-0.37109 0.64063m-1.7227 2.5156c-0.29688-0.63281-0.93359-1.0664-1.6758-1.0664-1.0234 0-1.8555 0.83203-1.8555 1.8633v0.60156h-0.67188v-0.60156c0-1.0312-0.82812-1.8633-1.8516-1.8633-1.0234 0-1.8555 0.83203-1.8555 1.8633v0.60156h-0.67188v-0.60156c0-1.0312-0.83203-1.8633-1.8555-1.8633-1.0234 0-1.8555 0.83203-1.8555 1.8633v0.60156h-0.67187v-0.60156c0-1.0312-0.82813-1.8633-1.8516-1.8633-1.0273 0-1.8555 0.83203-1.8555 1.8633v0.60156h-0.69531c-0.20703-1.3945-1.4062-2.4648-2.8516-2.4648-1.4492 0-2.6445 1.0703-2.8516 2.4648h-0.71484v-0.60156c0-1.0312-0.83203-1.8633-1.8555-1.8633-1.0234 0-1.8555 0.83203-1.8555 1.8633v0.60156h-0.67188v-0.60156c0-1.0312-0.82812-1.8633-1.8516-1.8633-1.0273 0-1.8555 0.83203-1.8555 1.8633v0.60156h-0.67188v-0.60156c0-1.0312-0.83203-1.8633-1.8555-1.8633-1.0234 0-1.8555 0.83203-1.8555 1.8633v0.60156h-0.67188v-0.60156c0-1.0312-0.82812-1.8633-1.8516-1.8633-0.73828 0-1.3711 0.42969-1.6719 1.0508-0.45312-0.58594-0.875-1.1875-1.2773-1.8086h43.023c-0.40625 0.625-0.83594 1.2344-1.293 1.8242m-2.0977 2.3828c-4 4.0195-9.3086 6.7109-15.23 7.3789v-2.9453h1.082c2.0078 0 3.457-0.16797 3.457-0.16797s-1.4922-0.22656-3.457-0.22656h-1.082v-4.332h1.293v-1.293c0-0.74219 0.60156-1.3477 1.3398-1.3477 0.74219 0 1.3398 0.60547 1.3398 1.3477v1.293h1.6992v-0.0078h0.0039v-1.2852c0-0.74219 0.59766-1.3477 1.3398-1.3477 0.73828 0 1.3398 0.60547 1.3398 1.3477v1.293h1.6992v-1.293c0-0.74219 0.60156-1.3477 1.3398-1.3477 0.74219 0 1.3398 0.60547 1.3398 1.3477v1.293h1.7031v-1.293c0-0.74219 0.59766-1.3477 1.3398-1.3477 0.58594 0 1.0859 0.37891 1.2656 0.91016-0.57031 0.70703-1.1719 1.3828-1.8125 2.0234m-16.59 2.1094c-0.17969 0.67969-0.79688 1.1836-1.5312 1.1836s-1.3516-0.50391-1.5312-1.1836zm-1.9688-1.3477c0.12109 0.33984 0.44531 0.58594 0.82812 0.58594 0.41406 0 0.75781-0.28516 0.85156-0.67578 0.25781 0.01172 0.51562 0.08984 0.76953 0.30469 0.24219 0.20312 0.33984 0.55859 0.37109 0.73437h-4.7695c0.03516-0.17578 0.13281-0.53125 0.375-0.73437 0.52344-0.44141 1.0547-0.29688 1.5742-0.21484m-0.62109-3.6602 0.51953 0.74609 0.53125-1.0117 0.53125 1.0117 0.51953-0.74609-0.20703 1.293h-1.6875zm0.24609 1.6914h1.625c0.0625 0.14844 0.21875 0.52734 0.3125 0.74609 0.06641 0.15234 0.14844 0.31641 0.04687 0.48437-0.12109 0.19922-0.28516 0.17188-0.39453 0.16406-0.0078-0.0039-0.01563 0-0.01953-0.0039-0.11719 0.3125-0.41016 0.53516-0.75781 0.53516-0.34766 0-0.64062-0.22266-0.75781-0.53516-0.0039 0.0039-0.01172 0-0.01953 0.0039-0.11328 0.0078-0.27344 0.03516-0.39453-0.16406-0.10156-0.16797-0.01953-0.33203 0.04687-0.48437 0.09375-0.21875 0.25-0.59766 0.3125-0.74609m2.7852 8.6758c-0.65234 0.04687-1.3086 0.07422-1.9727 0.07422-0.66406 0-1.3203-0.02734-1.9727-0.07422l-0.48437-3.0352h0.55859c-0.14062-0.33203-0.37891-0.91406-0.47266-1.1523-0.15234-0.37891-0.03906-0.62891 0.21094-0.72656 0.24609-0.09766 0.51953 0.03906 0.60938 0.36328l0.24219 0.92188h0.35937v0.71094h-0.84375v0.39844h1.2344v-0.51562h1.5v-0.59375h0.35547l0.25-0.92188c0.08594-0.32422 0.36328-0.46094 0.60938-0.36328 0.25391 0.09766 0.36719 0.34766 0.21484 0.72656-0.03906 0.10547-0.10547 0.27344-0.17969 0.46094l-0.33203 0.80859h-0.90234v0.39844h1.1641l0.21484-0.51562h0.12109zm-4.8633-3.4297h-1.1797v0.39453h1.1797v2.9453c-5.9219-0.66797-11.234-3.3594-15.234-7.3789-0.57422-0.57422-1.1211-1.1797-1.6367-1.8086 0.10547-0.63672 0.65625-1.125 1.3203-1.125 0.74219 0 1.3398 0.60547 1.3398 1.3477v1.293h1.6992v-0.0078h0.0039v-1.2852c0-0.74219 0.59766-1.3477 1.3398-1.3477 0.73828 0 1.3398 0.60547 1.3398 1.3477v1.293h1.6992v-1.293c0-0.74219 0.60156-1.3477 1.3398-1.3477 0.74219 0 1.3398 0.60547 1.3398 1.3477v1.293h1.7031v-1.293c0-0.74219 0.59766-1.3477 1.3398-1.3477 0.73828 0 1.3398 0.60547 1.3398 1.3477v1.293h1.0664zm2.8906-48.453c-14.41 0-26.094 11.734-26.094 26.211s11.684 26.211 26.094 26.211c14.41 0 26.09-11.734 26.09-26.211s-11.68-26.211-26.09-26.211m0.42188 43.844h0.22266v-0.39453h-0.53516v0.875h0.3125zm-19.676-36.965c-4.9258 4.9492-7.9727 11.785-7.9727 19.34 0 7.5547 3.0469 14.391 7.9727 19.34 4.9297 4.9492 11.734 8.0117 19.254 8.0117s14.324-3.0625 19.25-8.0117c4.9297-4.9492 7.9766-11.785 7.9766-19.34 0-7.5547-3.0469-14.391-7.9766-19.34-4.9258-4.9531-11.73-8.0117-19.25-8.0117s-14.324 3.0586-19.254 8.0117m-8.6641 19.34c0-15.488 12.5-28.043 27.918-28.043s27.914 12.555 27.914 28.043c0 15.488-12.496 28.043-27.914 28.043s-27.918-12.555-27.918-28.043m133.17 8.7734v-2.2227h-1.9492v2.2227h-1.2266v-5.3438h1.2266v2.0508h1.9492v-2.0508h1.2266v5.3438zm-7.832 0v-0.96484l1.707-2.875c0.0859-0.14062 0.17968-0.27734 0.28515-0.41016-0.14062 0.0078-0.32422 0.01563-0.83593 0.01563h-1.1016v-1.1094h3.4414v1.0039l-1.8047 2.9141c-0.0625 0.10547-0.125 0.19141-0.20312 0.30078 0.10156-0.01563 0.39843-0.01563 1.0312-0.01563h1.0078v1.1406zm-3.2812 0.10156c-1.6914 0-2.1016-0.91797-2.1016-1.9844v-3.4609h1.2266v3.3867c0 0.625 0.19921 1.0234 0.95312 1.0234 0.69531 0 0.96484-0.29297 0.96484-1.0938v-3.3164h1.2109v3.2461c0 1.5039-0.84375 2.1992-2.2539 2.1992m-6.7852 9.8789v-6.668c0-1.0938-0.29297-1.7422-1.2734-1.7422-1.3555 0-2.4219 1.5508-2.4219 3.375v5.0352h-2.6719v-15.312h2.6719v4.4688c0 0.62891-0.043 1.5078-0.1875 2.1172l0.043 0.02344c0.60156-1.1758 1.793-1.9531 3.4023-1.9531 2.3359 0 3.0898 1.5117 3.0898 3.3359v7.3203zm-11.297 0.19141c-2.8828 0-4.6758-1.5117-4.6758-5.0586 0-3.25 1.6914-5.7461 5.3672-5.7461 0.70703 0 1.4609 0.10547 2.1289 0.29297l-0.27344 2.3281c-0.5625-0.21094-1.2109-0.375-1.8789-0.375-1.6914 0-2.5469 1.2578-2.5469 3.2305 0 1.7812 0.69141 2.9961 2.4648 2.9961 0.70703 0 1.4805-0.14453 2.0469-0.4375l0.20703 2.2852c-0.71094 0.27344-1.7344 0.48438-2.8398 0.48438m-9.3047-10.617h2.6758v10.426h-2.6758zm1.3359-1.3398c-0.91797 0-1.6484-0.73438-1.6484-1.6406 0-0.87891 0.73047-1.6133 1.6484-1.6133 0.92187 0 1.6719 0.71484 1.6719 1.6133 0 0.90625-0.75 1.6406-1.6719 1.6406m-3.3906 3.7539c-1.9219-0.39844-2.8828 0.85938-2.8828 3.7539v4.2578h-2.6719v-10.426h2.5274c0 0.52344-0.0625 1.3633-0.1875 2.0977h0.043c0.5-1.3203 1.5-2.4727 3.2969-2.3281zm-10.961-4.1328c-0.79297 0-1.4414-0.64844-1.4414-1.4492 0-0.81641 0.64844-1.4453 1.4414-1.4453 0.79297 0 1.4414 0.62891 1.4414 1.4453 0 0.80078-0.64844 1.4492-1.4414 1.4492m-4.2188 0c-0.79297 0-1.4414-0.64844-1.4414-1.4492 0-0.81641 0.64844-1.4453 1.4414-1.4453 0.79297 0 1.4414 0.62891 1.4414 1.4453 0 0.80078-0.64844 1.4492-1.4414 1.4492m4.2383 12.145c0-0.48047 0.0195-1.3008 0.125-1.8438l-0.0195-0.02344c-0.62891 1.2383-1.8164 2.0977-3.5313 2.0977-2.3359 0-3.0898-1.5117-3.0898-3.3359v-7.3203h2.6523v6.6719c0 1.0898 0.29297 1.7422 1.2969 1.7422 1.3555 0 2.3984-1.5547 2.3984-3.3789v-5.0352h2.6758v10.426zm-17.992 0v-2.0977l5.0703-8.3047c0.29297-0.48438 0.58594-0.90234 0.92188-1.3438-0.50391 0.01953-1.1719 0.03906-2.5703 0.03906h-3.2578v-2.4531h9.1055v2.1836l-5.3672 8.5156c-0.20703 0.33594-0.39453 0.65234-0.64844 0.98828 0.35547-0.04297 1.3164-0.04297 3.0508-0.04297h3.0469v2.5156zm98.023-21.953c-2.2969 0-3.0273-0.83984-3.0273-3.2734v-5.2852h-1.7734v-2.0781h1.7734v-3.207l2.6719-0.71484v3.9219h2.5274v2.0781h-2.5274v4.5703c0 1.3438 0.31641 1.7227 1.2344 1.7227 0.4375 0 0.91797-0.0625 1.293-0.16797v2.1602c-0.66797 0.16797-1.4414 0.27344-2.1719 0.27344m-8.5156-12.355c-0.79297 0-1.4414-0.65234-1.4414-1.4492 0-0.81641 0.64844-1.4453 1.4414-1.4453s1.4414 0.62891 1.4414 1.4453c0 0.79688-0.64843 1.4492-1.4414 1.4492m-0.75 7.5312c-2.8203 0-3.4492 0.81641-3.4492 1.6562 0 0.67188 0.46094 1.1094 1.2344 1.1094 1.3125 0 2.2148-1.2578 2.2148-2.5156zm-3.4688-7.5312c-0.79297 0-1.4414-0.65234-1.4414-1.4492 0-0.81641 0.64844-1.4453 1.4414-1.4453 0.79687 0 1.4414 0.62891 1.4414 1.4453 0 0.79688-0.64453 1.4492-1.4414 1.4492m3.6758 12.145c0-0.60938 0.0195-1.2148 0.10547-1.7617l-0.0234-0.01953c-0.5 1.1719-1.7734 1.9922-3.3203 1.9922-1.8789 0-2.9648-1.0703-2.9648-2.75 0-2.4961 2.4648-3.8164 5.9961-3.8164v-0.56641c0-1.0898-0.52344-1.6562-2.0274-1.6562-0.9375 0-2.1914 0.3125-3.0703 0.81641l-0.22656-2.2461c1.043-0.375 2.3789-0.64844 3.7148-0.64844 3.3398 0 4.2812 1.3633 4.2812 3.6289v4.3438c0 0.83594 0.0195 1.8242 0.0625 2.6836zm-10.289 0.21094c-2.3008 0-3.0312-0.83984-3.0312-3.2734v-5.2852h-1.7734v-2.0781h1.7734v-3.207l2.6719-0.71484v3.9219h2.5274v2.0781h-2.5274v4.5703c0 1.3438 0.31641 1.7227 1.2344 1.7227 0.4375 0 0.91797-0.0625 1.293-0.16797v2.1602c-0.66797 0.16797-1.4414 0.27344-2.168 0.27344m-9.4375-10.637h2.6719v10.426h-2.6719zm1.3359-1.3398c-0.91796 0-1.6484-0.73438-1.6484-1.6367 0-0.88281 0.73047-1.6172 1.6484-1.6172 0.91797 0 1.6719 0.71484 1.6719 1.6172 0 0.90234-0.75391 1.6367-1.6719 1.6367m-8.2461 11.977c-0.75391 0-1.5078-0.08594-2.1758-0.19141l0.0664-2.1992c0.64453 0.16797 1.4375 0.3125 2.2344 0.3125 1.0234 0 1.6914-0.41797 1.6914-1.1094 0-1.8477-4.1992-0.80078-4.1992-4.3438 0-1.8242 1.4844-3.3359 4.4062-3.3359 0.60547 0 1.2773 0.08203 1.8984 0.1875l-0.082 2.1211c-0.58203-0.16797-1.2734-0.27344-1.9219-0.27344-1.043 0-1.543 0.41797-1.543 1.0703 0 1.6992 4.2578 0.94531 4.2578 4.3203 0 2.0547-1.793 3.4414-4.6328 3.4414m-3.6562-8.2227c-1.9219-0.40234-2.8789 0.85937-2.8789 3.7539v4.2578h-2.6758v-10.426h2.5274c0 0.52344-0.0625 1.3633-0.1875 2.0977h0.043c0.5-1.3203 1.5-2.4727 3.2969-2.3281zm-12.234-0.67188c-1.1094 0-1.8789 0.81641-2.0274 2.0781h3.8242c0.0391-1.3047-0.67187-2.0781-1.7969-2.0781m4.3633 3.9023h-6.4297c-0.0234 1.9492 0.9375 2.8945 2.8594 2.8945 1.0234 0 2.1289-0.23047 3.0273-0.65234l0.25 2.0781c-1.1055 0.44141-2.4219 0.67188-3.7148 0.67188-3.3008 0-5.1367-1.6562-5.1367-5.3281 0-3.1875 1.7539-5.5391 4.8633-5.5391 3.0273 0 4.3672 2.0781 4.3672 4.6562 0 0.35547-0.0234 0.77734-0.0859 1.2188m-13.426 4.7812h-2.7148l-3.8398-10.426h2.9219l1.6484 4.6992c0.25 0.71484 0.50391 1.5508 0.69141 2.3086h0.0391c0.16797-0.71484 0.37891-1.5117 0.625-2.2266l1.6719-4.7812h2.8398zm-10.734-10.426h2.6758v10.426h-2.6758zm1.3359-1.3398c-0.91797 0-1.6484-0.73438-1.6484-1.6367 0-0.88281 0.73047-1.6172 1.6484-1.6172 0.92187 0 1.6719 0.71484 1.6719 1.6172 0 0.90234-0.75 1.6367-1.6719 1.6367m-6.8867 11.766v-6.6719c0-1.0898-0.29297-1.7422-1.2773-1.7422-1.3555 0-2.4219 1.5547-2.4219 3.3789v5.0352h-2.6719v-10.426h2.5274c0 0.48438-0.043 1.3008-0.14454 1.8477l0.0195 0.01953c0.625-1.2383 1.8359-2.0977 3.5274-2.0977 2.3398 0 3.0898 1.5117 3.0898 3.3359v7.3203zm-15.121 0.23047c-4.4453 0-5.4492-2.4336-5.4492-5.1406v-9.25h2.7148v9.0859c0 1.7812 0.58594 3.0391 2.9219 3.0391 2.0898 0 2.9688-0.87891 2.9688-3.293v-8.832h2.6914v8.6641c0 3.8789-2.1289 5.7266-5.8477 5.7266m-36.062-20.895c-0.26953 0-0.49219 0.21875-0.49219 0.48828 0 0.27344 0.22266 0.49219 0.49219 0.49219 0.26953 0 0.48828-0.21875 0.48828-0.49219 0-0.26953-0.21875-0.48828-0.48828-0.48828m0.38281 32.957v-1.1641c0-0.21875-0.17578-0.39453-0.39062-0.39453-0.21875 0-0.39453 0.17578-0.39453 0.39453v1.1641zm-0.14453-4.4141v-1.3086c0-0.13672-0.10547-0.24609-0.24219-0.24609-0.13281 0-0.24219 0.10938-0.24219 0.24609v1.3086zm0-3.9492v-1.3125c0-0.13281-0.10547-0.24219-0.24219-0.24219-0.13281 0-0.24219 0.10938-0.24219 0.24219v1.3125zm0.21094-10.465v-1.0117c-0.0039-0.36719-0.18359-0.62109-0.44922-0.73828-0.26953 0.11719-0.44922 0.375-0.44922 0.73828v1.0117zm0 5.0312v-1.5664c-0.0039-0.36719-0.18359-0.62109-0.44922-0.73828-0.26953 0.11719-0.44922 0.37109-0.44922 0.73828v1.5664zm-11.797-19.16c-0.26953 0-0.48828 0.21875-0.48828 0.48828 0 0.27344 0.21875 0.49219 0.48828 0.49219s0.48828-0.21875 0.48828-0.49219c0-0.26953-0.21875-0.48828-0.48828-0.48828m0.38281 32.957v-1.1641c0-0.21875-0.17578-0.39453-0.39062-0.39453-0.21484 0-0.39063 0.17578-0.39063 0.39453v1.1641zm-0.14062-4.4141v-1.3086c0-0.13672-0.10938-0.24609-0.24219-0.24609-0.13672 0-0.24219 0.10938-0.24219 0.24609v1.3086zm0-3.9492v-1.3125c0-0.13281-0.10938-0.24219-0.24219-0.24219-0.13672 0-0.24219 0.10938-0.24219 0.24219v1.3125zm0.21094-10.465v-1.0117c-0.0039-0.36719-0.18359-0.62109-0.45312-0.73828-0.26953 0.11719-0.44531 0.375-0.44922 0.73828v1.0117zm0 5.0312v-1.5664c-0.0039-0.36719-0.18359-0.62109-0.45312-0.73828-0.26953 0.11719-0.44531 0.37109-0.44922 0.73828v1.5664zm0.29688 26.855c-0.27344 0-0.48828 0.22266-0.48828 0.49219 0 0.27344 0.21484 0.49219 0.48828 0.49219 0.26953 0 0.48828-0.21875 0.48828-0.49219 0-0.26953-0.21875-0.49219-0.48828-0.49219m4.6797-26.875h0.49219v-1.0625h-0.49219zm0.24609-13.711c-0.26953 0-0.48828 0.22266-0.48828 0.49219 0 0.27344 0.21875 0.49219 0.48828 0.49219s0.48828-0.21875 0.48828-0.49219c0-0.26953-0.21875-0.49219-0.48828-0.49219m1.7266 27.82v-1.3828c0-0.25781-0.20703-0.46875-0.46484-0.46875s-0.46875 0.21094-0.46875 0.46875v1.3828zm-2.5234 0v-1.3828c0-0.25781-0.20703-0.46875-0.46484-0.46875-0.25781 0-0.46484 0.21094-0.46484 0.46875v1.3828zm14.59 11.406c-0.03516 0-0.08984 0-0.12109-0.0078-0.06641-0.01172-0.07031-0.02734-0.07813-0.09375-0.01172-0.09766-0.01172-0.28516-0.01172-0.51172v-0.41408c0-0.35938 0-0.42578 0.0039-0.5 0.0078-0.08203 0.01563-0.09375 0.07422-0.10938 0.02734-0.0039 0.04687-0.0078 0.07031-0.0078s0.05859-0.01172 0.05859-0.04687c-0.0078-0.03906-0.03906-0.03906-0.07031-0.03906-0.09375 0-0.25391 0.0039-0.3125 0.0039-0.06641 0-0.23438-0.0039-0.32422-0.0039-0.03906 0-0.07031 0-0.07812 0.03906 0 0.03516 0.03125 0.04687 0.05859 0.04687s0.05859 0.0039 0.08203 0.01172c0.04688 0.01563 0.0625 0.02734 0.07031 0.10547v0.5 0.41406c0 0.22656 0 0.41406-0.01172 0.51172-0.0078 0.07031-0.01563 0.08594-0.05469 0.09766-0.01953 0.0039-0.04687 0.0039-0.08203 0.0039s-0.05859 0.02344-0.05859 0.04687c0.0039 0.03516 0.03906 0.04297 0.07031 0.04297 0.09375 0 0.26172-0.0039 0.31641-0.0039 0.0625 0 0.23047 0.0039 0.39063 0.0039 0.02734 0 0.0625-0.0039 0.06641-0.04297 0-0.02734-0.02734-0.04687-0.05859-0.04687m-1.4727 0c-0.03516 0-0.08984 0-0.12109-0.0078-0.0625-0.01172-0.07031-0.02734-0.08203-0.09375-0.0078-0.09766-0.0078-0.28516-0.0078-0.51172v-0.41409c0-0.35938 0-0.42578 0.0039-0.5 0.0078-0.08203 0.01563-0.09375 0.07422-0.10938 0.02734-0.0039 0.04687-0.0078 0.07031-0.0078s0.05859-0.01172 0.05859-0.04687c-0.0078-0.03906-0.03906-0.03906-0.07031-0.03906-0.09375 0-0.25391 0.0039-0.3125 0.0039-0.06641 0-0.23438-0.0039-0.32422-0.0039-0.03906 0-0.07031 0-0.07813 0.03906 0 0.03516 0.03125 0.04687 0.05859 0.04687s0.05859 0.0039 0.08203 0.01172c0.04687 0.01563 0.05859 0.02734 0.06641 0.10547 0.0039 0.07422 0.0039 0.14062 0.0039 0.5v0.41406c0 0.22656 0 0.41406-0.01172 0.51172-0.0078 0.07031-0.01563 0.08594-0.05469 0.09766-0.01953 0.0039-0.04687 0.0039-0.08203 0.0039s-0.05859 0.02344-0.05859 0.04687c0.0039 0.03516 0.03516 0.04297 0.06641 0.04297 0.09766 0 0.26562-0.0039 0.31641-0.0039 0.06641 0 0.23438 0.0039 0.39453 0.0039 0.02734 0 0.0625-0.0039 0.06641-0.04297 0-0.02344-0.02344-0.04687-0.05859-0.04687m-1.4727 0c-0.03516 0-0.08984 0-0.12109-0.0078-0.0625-0.01172-0.07031-0.02734-0.08203-0.09375-0.0078-0.09766-0.0078-0.28516-0.0078-0.51172v-0.41409c0-0.35938 0-0.42578 0.0039-0.5 0.0078-0.08203 0.01563-0.09375 0.07422-0.10938 0.02734-0.0039 0.04687-0.0078 0.07031-0.0078s0.05859-0.01172 0.05859-0.04687c-0.0078-0.03906-0.03906-0.03906-0.07031-0.03906-0.09375 0-0.25391 0.0039-0.3125 0.0039-0.07031 0-0.23438-0.0039-0.32422-0.0039-0.03906 0-0.07031 0-0.07813 0.03906 0 0.03516 0.03125 0.04687 0.05859 0.04687s0.05859 0.0039 0.08203 0.01172c0.04687 0.01563 0.0625 0.02734 0.07031 0.10547v0.5 0.41406c0 0.22656 0 0.41406-0.01172 0.51172-0.0078 0.07031-0.01563 0.08594-0.05469 0.09766-0.01953 0.0039-0.04687 0.0039-0.08203 0.0039s-0.05859 0.02344-0.05859 0.04687c0.0039 0.03516 0.03516 0.04297 0.06641 0.04297 0.09766 0 0.26562-0.0039 0.31641-0.0039 0.06641 0 0.23438 0.0039 0.39453 0.0039 0.02734 0 0.0625-0.0039 0.06641-0.04297 0-0.02344-0.02344-0.04687-0.05859-0.04687m-1.2695 0c-0.01953 0-0.05859 0-0.08594-0.01172-0.05078-0.01563-0.08203-0.03516-0.125-0.08594-0.05469-0.07031-0.4375-0.67578-0.53125-0.82031l0.39454-0.53907c0.07422-0.10547 0.12109-0.16406 0.16406-0.17187 0.03125-0.0078 0.05859-0.01563 0.08203-0.01563 0.03125 0 0.05859-0.01562 0.05859-0.04297 0-0.03906-0.03516-0.04297-0.0625-0.04297-0.08984 0-0.19141 0.0039-0.23828 0.0039-0.04297 0-0.16016-0.0039-0.25391-0.0039-0.03516 0-0.07031 0.0039-0.07031 0.04297 0 0.03125 0.02734 0.04297 0.05078 0.04297 0.01563 0 0.05078 0 0.07031 0.0078 0.01953 0.0039 0.02734 0.01953 0.02734 0.01953 0 0.01563-0.0078 0.04687-0.02734 0.07813-0.03516 0.05859-0.22656 0.33984-0.30859 0.46484-0.09375-0.15234-0.1875-0.30859-0.28906-0.48828-0.01172-0.01953-0.01953-0.05469-0.01953-0.05859s0-0.01172 0.01563-0.01563c0.01953-0.0039 0.04297-0.0078 0.05469-0.0078 0.02344 0 0.05469-0.01172 0.05859-0.04297-0.0039-0.03906-0.03906-0.04297-0.07031-0.04297-0.08984 0-0.24219 0.0039-0.27344 0.0039-0.11328 0-0.3125-0.0039-0.36719-0.0039-0.03125 0-0.06641 0-0.07031 0.03906 0 0.02734 0.01953 0.04687 0.04297 0.04687s0.05859 0.0078 0.09766 0.01563c0.07813 0.02734 0.125 0.07422 0.18359 0.16406l0.42188 0.66016-0.46875 0.63281c-0.08203 0.11328-0.11719 0.14453-0.17969 0.16406-0.03516 0.0078-0.07031 0.0078-0.08594 0.0078-0.02734 0.0039-0.05078 0.02344-0.05078 0.05078s0.02734 0.03906 0.05469 0.03906h0.04297c0.03906 0 0.15625-0.0039 0.20312-0.0039 0.05859 0 0.21875 0.0039 0.23438 0.0039h0.04297c0.03125 0 0.07031-0.0039 0.07031-0.03906 0-0.03125-0.02344-0.04687-0.05078-0.05078h-0.05078c-0.01562 0-0.02734-0.0078-0.02734-0.01953v-0.0039c0-0.01563 0.01172-0.04687 0.03125-0.08203l0.33984-0.52734c0.10547 0.17578 0.23438 0.38672 0.36719 0.60547 0.0039 0.0078 0.0039 0.01172 0.0039 0.01563 0.0039 0.0039 0 0.0039 0 0.0039-0.02734 0.0039-0.04687 0.02344-0.04687 0.05078 0.0078 0.04297 0.04297 0.03906 0.10156 0.04297 0.19922 0.0039 0.39453 0.0039 0.45312 0.0039h0.07031c0.03125 0 0.0625-0.0039 0.06641-0.04297 0-0.02734-0.02734-0.04687-0.05078-0.04687m-2.0586 0c-0.01953 0-0.05859 0-0.08594-0.01172-0.05469-0.01563-0.08594-0.03516-0.125-0.08594-0.05469-0.07031-0.44141-0.67578-0.53125-0.82031l0.39453-0.53906c0.07422-0.10547 0.11719-0.16406 0.16016-0.17187 0.03516-0.0078 0.0625-0.01563 0.08594-0.01563 0.02734 0 0.05859-0.01562 0.05859-0.04297-0.0039-0.03906-0.03906-0.04297-0.0625-0.04297-0.09375 0-0.19141 0.0039-0.23828 0.0039-0.04687 0-0.16016-0.0039-0.25391-0.0039-0.03516 0-0.07031 0.0039-0.07422 0.04297 0 0.03125 0.03125 0.04297 0.05078 0.04297s0.05078 0 0.07031 0.0078c0.02344 0.0039 0.03125 0.01953 0.02734 0.01953 0 0.01563-0.0039 0.04687-0.02344 0.07813-0.03906 0.05859-0.22656 0.33984-0.30859 0.46484-0.09375-0.15625-0.1875-0.30859-0.28906-0.48828-0.01563-0.01953-0.02344-0.05469-0.02344-0.05859s0.0039-0.0078 0.01953-0.01563c0.01563-0.0039 0.04297-0.0078 0.05078-0.0078 0.02734 0 0.05859-0.01172 0.05859-0.04297 0-0.03906-0.03516-0.04297-0.06641-0.04297-0.09375 0-0.24219 0.0039-0.27344 0.0039-0.11719 0-0.3125-0.0039-0.37109-0.0039-0.03125 0-0.0625 0-0.07031 0.03906 0 0.02734 0.01953 0.04687 0.04687 0.04687 0.02344 0 0.05859 0.0078 0.09766 0.01563 0.07813 0.02734 0.12109 0.07422 0.18359 0.16406l0.41797 0.66016-0.46484 0.63281c-0.08594 0.11328-0.11719 0.14453-0.18359 0.16406-0.03125 0.0078-0.06641 0.0078-0.08203 0.0078-0.02734 0.0039-0.05078 0.02344-0.05078 0.05078s0.02734 0.03906 0.05469 0.03906h0.03906c0.04297 0 0.16016-0.0039 0.20312-0.0039 0.0625 0 0.21875 0.0039 0.23828 0.0039h0.04297c0.03125 0 0.06641-0.0039 0.07031-0.03906-0.0039-0.03125-0.02734-0.04687-0.05078-0.05078h-0.05078c-0.01953 0-0.03125-0.0078-0.03125-0.01953v-0.0039c0-0.01563 0.01172-0.04687 0.03516-0.08203l0.33984-0.52734c0.10548 0.17581 0.23048 0.38675 0.36329 0.6055 0.0078 0.0078 0.0078 0.01172 0.0078 0.01563 0 0.0039-0.0039 0.0039-0.0039 0.0039-0.02344 0.0039-0.04687 0.02344-0.04687 0.05078 0.0078 0.04297 0.04297 0.03906 0.10547 0.04297 0.19922 0.0039 0.39062 0.0039 0.44922 0.0039h0.07422c0.02734 0 0.0625-0.0039 0.06641-0.04297 0-0.02734-0.02734-0.04687-0.05078-0.04687m-2.0586 0c-0.02344 0-0.05859 0-0.08984-0.01172-0.05078-0.01563-0.08203-0.03516-0.12109-0.08594-0.05859-0.07031-0.44141-0.67578-0.53125-0.82031l0.39062-0.53906c0.07422-0.10547 0.12109-0.16406 0.16406-0.17187 0.03125-0.0078 0.0625-0.01563 0.08594-0.01563 0.02734 0 0.05469-0.01562 0.05469-0.04297 0-0.03906-0.03516-0.04297-0.0625-0.04297-0.09375 0-0.19141 0.0039-0.23828 0.0039-0.04687 0-0.16016-0.0039-0.25391-0.0039-0.03125 0-0.07031 0.0039-0.07031 0.04297 0 0.03125 0.03125 0.04297 0.05078 0.04297 0.01563 0 0.05078 0 0.07031 0.0078 0.01953 0.0039 0.02734 0.01953 0.02734 0.01953 0 0.01563-0.0078 0.04687-0.02344 0.07813-0.03906 0.05859-0.23047 0.33984-0.3125 0.46484-0.08984-0.15234-0.1875-0.30859-0.28516-0.48828-0.01563-0.01953-0.02344-0.05469-0.02344-0.05859s0-0.01172 0.01563-0.01563c0.01953-0.0039 0.04297-0.0078 0.05469-0.0078 0.02734 0 0.05859-0.01172 0.05859-0.04297 0-0.03906-0.03906-0.04297-0.07031-0.04297-0.08984 0-0.23828 0.0039-0.27344 0.0039-0.11328 0-0.30859-0.0039-0.36719-0.0039-0.03125 0-0.06641 0-0.07031 0.03906 0 0.02734 0.01953 0.04687 0.04297 0.04687s0.0625 0.0078 0.09766 0.01563c0.08203 0.02734 0.125 0.07422 0.1875 0.16406l0.41797 0.66016-0.46484 0.63281c-0.08594 0.11328-0.12109 0.14453-0.18359 0.16406-0.03125 0.0078-0.07031 0.0078-0.08594 0.0078-0.02734 0.0039-0.05078 0.02344-0.05078 0.05078s0.02734 0.03906 0.05469 0.03906h0.04297c0.03906 0 0.15625-0.0039 0.20312-0.0039 0.05859 0 0.21875 0.0039 0.23438 0.0039h0.04297c0.03125 0 0.07031-0.0039 0.07031-0.03906 0-0.03125-0.02344-0.04687-0.05078-0.05078h-0.05078c-0.01563 0-0.02734-0.01172-0.02734-0.01953v-0.0039c0-0.01563 0.01172-0.04687 0.03125-0.08203l0.33984-0.52734c0.10938 0.17578 0.23438 0.38672 0.36719 0.60547 0.0039 0.0078 0.0039 0.01172 0.0039 0.01563 0.0039 0.0039 0 0.0039 0 0.0039-0.02344 0.0039-0.04687 0.02344-0.04687 0.05078 0.0078 0.04297 0.04297 0.03906 0.10156 0.04297 0.19922 0.0039 0.39453 0.0039 0.45312 0.0039h0.07422c0.02734 0 0.0625-0.0039 0.0625-0.04297 0-0.02734-0.02344-0.04687-0.04687-0.04687m-9.3828-0.39453c-0.03125 0-0.04687 0.03125-0.05078 0.0625-0.0078 0.03906-0.03906 0.10547-0.07813 0.14844-0.08984 0.10156-0.19922 0.12109-0.41406 0.12109-0.31641-0.0039-0.73828-0.25781-0.73828-0.80859 0-0.22656 0.04297-0.44922 0.21875-0.59766 0.10547-0.08984 0.23438-0.12891 0.44531-0.12891 0.21875 0 0.37891 0.05859 0.45312 0.13281 0.05859 0.05859 0.08594 0.13672 0.08984 0.20703 0 0.02734 0.0039 0.06641 0.04297 0.07031 0.04297-0.0039 0.05078-0.04297 0.05469-0.07813 0-0.04687 0-0.17969 0.0078-0.25391 0.0039-0.08594 0.0078-0.10937 0.0078-0.13281 0.0039-0.02344-0.01953-0.04687-0.05078-0.04687-0.07031-0.0078-0.15234-0.02734-0.24219-0.03906-0.10938-0.01562-0.20312-0.02344-0.35547-0.02344-0.36328 0-0.60547 0.09375-0.78516 0.25391-0.23438 0.21094-0.28906 0.49609-0.28906 0.66016 0 0.23047 0.06641 0.50391 0.30859 0.71094 0.22656 0.19141 0.51172 0.25781 0.84766 0.25781 0.16016 0 0.34375-0.01172 0.44531-0.05469 0.04297-0.01172 0.06641-0.03516 0.07422-0.07813 0.02734-0.08594 0.05469-0.28906 0.05469-0.32031 0-0.02344-0.01172-0.05859-0.04687-0.0625m-1.9453 0c-0.03125 0-0.04687 0.03125-0.05078 0.0625-0.0039 0.03906-0.03906 0.10547-0.07812 0.14844-0.08984 0.10156-0.19922 0.12109-0.41406 0.12109-0.31641-0.0039-0.73438-0.25781-0.73828-0.80859 0-0.22656 0.04687-0.44922 0.21875-0.59766 0.10547-0.08984 0.23438-0.12891 0.44531-0.12891 0.21875 0 0.37891 0.05859 0.45312 0.13281 0.05859 0.05859 0.08594 0.13672 0.08984 0.20703 0 0.02734 0.0039 0.06641 0.04297 0.07031 0.04297-0.0039 0.05078-0.04297 0.05469-0.07813 0-0.04687 0-0.17969 0.0078-0.25391 0.0039-0.08594 0.01172-0.10937 0.01172-0.13281 0-0.02344-0.02344-0.04687-0.05469-0.04687-0.07031-0.0078-0.14844-0.02734-0.24219-0.03906-0.10938-0.01562-0.20313-0.02344-0.35547-0.02344-0.36719 0-0.60156 0.09375-0.78125 0.25391-0.23828 0.21094-0.29297 0.49609-0.29297 0.66016 0 0.23047 0.06641 0.50391 0.3125 0.71094 0.22656 0.19141 0.51172 0.25781 0.84375 0.25781 0.16016 0 0.34375-0.01172 0.44531-0.05469 0.04297-0.01172 0.06641-0.03516 0.07422-0.07813 0.02734-0.08594 0.05469-0.28906 0.05469-0.32031 0-0.02344-0.01172-0.05859-0.04687-0.0625m-1.9453 0c-0.03125 0-0.04687 0.03125-0.04687 0.0625-0.0078 0.03906-0.03906 0.10547-0.07813 0.14844-0.09375 0.10156-0.20312 0.12109-0.41797 0.12109-0.31641-0.0039-0.73437-0.25781-0.73437-0.80859 0-0.22656 0.04297-0.44922 0.21484-0.59766 0.10547-0.08984 0.23438-0.12891 0.44531-0.12891 0.21875 0 0.37891 0.05859 0.45703 0.13281 0.05469 0.05859 0.08594 0.13672 0.08594 0.20703 0 0.02734 0.0039 0.06641 0.04688 0.07031 0.03906-0.0039 0.04687-0.04297 0.05078-0.07813 0.0039-0.04687 0.0039-0.17969 0.0078-0.25391 0.0078-0.08594 0.01172-0.10937 0.01172-0.13281 0.0039-0.02344-0.02344-0.04687-0.05469-0.04687-0.07031-0.0078-0.14844-0.02734-0.24219-0.03906-0.10938-0.01562-0.20312-0.02344-0.35547-0.02344-0.36328 0-0.60156 0.09375-0.78125 0.25391-0.23828 0.21094-0.29297 0.49609-0.29297 0.66016 0 0.23047 0.06641 0.50391 0.3125 0.71094 0.22266 0.19141 0.51172 0.25781 0.84375 0.25781 0.16016 0 0.34375-0.01172 0.44922-0.05469 0.04297-0.01172 0.0625-0.03516 0.07422-0.07813 0.02344-0.08594 0.05078-0.28906 0.05078-0.32031 0-0.02344-0.0078-0.05859-0.04687-0.0625m-2.2969-0.38276c0 0.24219-0.05078 0.44531-0.19922 0.57031-0.14063 0.11719-0.29688 0.15625-0.51563 0.15625-0.1875 0-0.28125-0.05078-0.30469-0.08594-0.01172-0.01172-0.01953-0.09766-0.01953-0.15625-0.0039-0.04687-0.0078-0.22656-0.0078-0.47656v-0.29687c0-0.18359 0-0.37891 0.0039-0.45703 0-0.02734 0-0.01953 0.01562-0.03125 0.01172-0.0078 0.09766-0.01563 0.14453-0.01172 0.1875 0 0.44531 0.02344 0.66406 0.21875 0.10547 0.08984 0.21875 0.27734 0.21875 0.57031m0.15234-0.67968c-0.27344-0.27344-0.6875-0.27344-0.99219-0.27344-0.14453 0-0.32031 0.0039-0.39062 0.0039-0.07031 0-0.22656-0.0039-0.35156-0.0039-0.03516 0-0.07031 0.0039-0.07813 0.04297 0.0039 0.03125 0.03516 0.04297 0.0625 0.04297 0.03516 0 0.07813 0.0039 0.09375 0.0078 0.07422 0.02734 0.08203 0.03125 0.08984 0.10938 0.0039 0.07422 0.0039 0.14062 0.0039 0.5v0.41406c0 0.21484 0 0.40234-0.01172 0.5-0.01172 0.07031-0.01953 0.10156-0.05859 0.10938-0.01953 0.0039-0.04297 0.0039-0.08203 0.0039-0.03516 0-0.05859 0.02344-0.05859 0.04687 0.0039 0.03516 0.03906 0.04297 0.07031 0.04297 0.04687 0 0.10938 0 0.16797-0.0039h0.13672c0.05859 0 0.14844 0.0039 0.24219 0.01172 0.09766 0.0039 0.20312 0.01172 0.29297 0.01172 0.45312 0 0.71484-0.16797 0.82812-0.28125 0.14062-0.13672 0.26953-0.36719 0.26953-0.67188 0-0.28516-0.10938-0.48828-0.23438-0.61328m-1.9805 1.457c-0.02734 0-0.0625 0-0.13281-0.01953-0.05859-0.01562-0.08203-0.06641-0.10156-0.21484l-0.22265-1.457c-0.0078-0.05469-0.03906-0.08984-0.07422-0.08984s-0.0625 0.02734-0.08203 0.06641l-0.63281 1.2969-0.63281-1.2773c-0.03125-0.06641-0.05859-0.08594-0.09375-0.08594s-0.05859 0.03125-0.06641 0.07422l-0.23828 1.5391c-0.01172 0.07813-0.03906 0.16406-0.08203 0.16406-0.03906 0.0039-0.05469 0.0039-0.07422 0.0039-0.02734 0-0.05469 0.01563-0.05859 0.04297 0 0.04297 0.03906 0.04688 0.06641 0.04688 0.07813 0 0.19141-0.0039 0.23828-0.0039 0.04297 0 0.15234 0.0039 0.25781 0.0039 0.03125 0 0.07422-0.0039 0.07422-0.04688 0-0.03125-0.02734-0.03906-0.05469-0.04297-0.01953 0-0.04297 0-0.08203-0.0078-0.04297-0.0078-0.05859-0.01953-0.05859-0.05078 0-0.03906 0.0039-0.06641 0.0078-0.10938l0.10938-0.86719c0.08203 0.16797 0.20312 0.41797 0.21875 0.45703 0.02734 0.07031 0.22266 0.42969 0.28125 0.53906 0.03906 0.07031 0.0625 0.125 0.11328 0.12891 0.04297-0.0039 0.05859-0.03516 0.11328-0.14453l0.5-1.0078 0.12891 0.96875c0 0.01953 0.0039 0.03516 0.0039 0.04687 0 0.03125-0.0039 0.03125-0.0039 0.03125-0.01563 0.0078-0.03906 0.01563-0.03906 0.04297 0.0039 0.03516 0.03516 0.04687 0.08984 0.04687 0.09766 0.0078 0.44141 0.01563 0.50391 0.01563 0.03516 0 0.07813 0 0.08203-0.04688 0-0.03125-0.03125-0.04297-0.05859-0.04297m30.953-13.203c0.05469-0.05078 0.08203-0.05469 0.16797-0.01563 0.21875 0.09375 0.44922 0.21484 0.51172 0.24609 0.05859 0.03125 0.09766 0.0625 0.08203 0.09375-0.01563 0.03516-0.05078 0.02344-0.08203 0.0078-0.05469-0.01953-0.14453-0.03906-0.21875-0.05078-0.33203-0.03906-0.54297 0.14844-0.64844 0.39844-0.15625 0.35938 0.01172 0.63672 0.22266 0.73047 0.19531 0.08594 0.40234 0.10547 0.80469-0.11719l0.22266-0.12109c0.53125-0.28906 0.875-0.32031 1.1953-0.17969 0.4375 0.19141 0.59375 0.69531 0.35547 1.2461-0.10938 0.26172-0.22266 0.41406-0.29688 0.50391-0.02344 0.03516-0.04297 0.04687-0.07031 0.03516-0.05078-0.02344-0.16016-0.08984-0.46875-0.22266-0.08984-0.03906-0.11719-0.0625-0.10156-0.09766 0.01172-0.02734 0.03906-0.02734 0.08984-0.0078 0.03516 0.01562 0.16406 0.05078 0.30469 0.01172 0.10156-0.02734 0.26953-0.08984 0.38281-0.35156 0.125-0.29688 0.03516-0.55078-0.20312-0.65234-0.18359-0.08203-0.36328-0.05078-0.75781 0.17578l-0.12891 0.07422c-0.57031 0.32812-0.92188 0.37891-1.2969 0.21484-0.23047-0.10156-0.46875-0.30859-0.53125-0.67578-0.03906-0.25781 0.01953-0.49609 0.10938-0.70703 0.10156-0.23047 0.20703-0.39844 0.35547-0.53906m2.5508-1.5352c0.63672 0.17969 0.75391 0.21484 0.88672 0.24219 0.14453 0.03516 0.22656 0.01172 0.27344-0.07422 0.02734-0.04297 0.04687-0.09766 0.05859-0.14453 0.01172-0.04297 0.02734-0.06641 0.0625-0.05859 0.02344 0.0078 0.02344 0.04297 0.0039 0.11328-0.04297 0.15625-0.12891 0.41797-0.16406 0.53906-0.03125 0.10547-0.08594 0.35547-0.13281 0.51562-0.01563 0.05469-0.03125 0.08594-0.05859 0.07813-0.03125-0.01172-0.03516-0.03906-0.02344-0.07813 0.01562-0.04297 0.01953-0.07813 0.02344-0.12891 0.01172-0.12109-0.05078-0.17578-0.19531-0.22266-0.12891-0.04687-0.24609-0.08203-0.87891-0.26172l-0.73438-0.20703c-0.40234-0.11719-0.73438-0.20703-0.91797-0.24219-0.11328-0.01953-0.19922-0.01172-0.25 0.10938-0.02734 0.05469-0.05859 0.14453-0.07812 0.20703-0.01172 0.04687-0.03125 0.06641-0.05078 0.05859-0.03125-0.0078-0.03516-0.04297-0.01953-0.08984 0.07813-0.27734 0.16406-0.53906 0.19531-0.65234 0.02734-0.09375 0.08984-0.36328 0.13672-0.53125 0.01563-0.05469 0.03516-0.07813 0.06641-0.07031 0.01953 0.0039 0.02734 0.02344 0.01563 0.07813-0.01953 0.05859-0.02734 0.11328-0.02734 0.15234-0.0078 0.08984 0.05469 0.13672 0.17188 0.17969 0.17188 0.07422 0.5 0.16406 0.90625 0.28125zm-1.2969-3.6953c0.03906-0.0625 0.0625-0.07422 0.15625-0.05859 0.23828 0.03516 0.49219 0.08594 0.5625 0.10156 0.0625 0.01172 0.10938 0.03125 0.10156 0.06641-0.0039 0.03906-0.04297 0.03906-0.07813 0.03125-0.05469-0.0039-0.14844 0-0.22266 0.0078-0.33203 0.05078-0.48438 0.28906-0.52344 0.55469-0.05469 0.38672 0.17969 0.61328 0.40625 0.64844 0.21094 0.03125 0.41797-0.0039 0.74609-0.32422l0.18359-0.17578c0.4375-0.42187 0.76172-0.53906 1.1094-0.48828 0.47266 0.06641 0.75391 0.51172 0.66797 1.1094-0.03906 0.28125-0.10938 0.45703-0.15625 0.5625-0.01172 0.03906-0.02734 0.05859-0.05859 0.05469-0.05469-0.0078-0.17969-0.04297-0.51172-0.08984-0.09375-0.01563-0.12891-0.03516-0.12109-0.06641 0.0039-0.03125 0.03125-0.04297 0.08203-0.03516 0.03906 0.0078 0.17188 0.0039 0.29688-0.07031 0.09375-0.05078 0.23828-0.16016 0.27734-0.4375 0.04687-0.32031-0.10938-0.53906-0.36719-0.57812-0.19531-0.02734-0.36328 0.05078-0.68359 0.36719l-0.10547 0.10937c-0.46484 0.46484-0.78906 0.60547-1.1953 0.54688-0.25-0.03516-0.53125-0.17188-0.6875-0.51172-0.10938-0.23438-0.11328-0.48047-0.07813-0.71094 0.03516-0.25 0.09375-0.4375 0.19922-0.61328m0.58203-4.0156c-0.33594 0.01953-0.44531 0.08203-0.47656 0.16797-0.02344 0.07813-0.02344 0.16016-0.01953 0.23047 0 0.04688-0.0078 0.07422-0.03516 0.07422-0.03125 0-0.04297-0.03906-0.04297-0.09766-0.01172-0.28516-0.0039-0.45703-0.0078-0.54297 0-0.03906-0.02344-0.24219-0.03125-0.46875 0-0.05469 0.0039-0.09375 0.03906-0.09766 0.02734 0 0.03906 0.02734 0.03906 0.07031 0.0039 0.05469 0.0078 0.13281 0.02734 0.19531 0.03906 0.10938 0.16797 0.125 0.54297 0.11328l2.5664-0.05078c0.08594-0.0039 0.14844 0.0078 0.14844 0.05078 0.0039 0.05078-0.05078 0.08984-0.12891 0.16797-0.05469 0.05078-0.73828 0.73828-1.3398 1.3984-0.28516 0.30469-0.89062 0.91406-0.95703 0.99219v0.01953l1.9453-0.10938c0.26562-0.01563 0.34375-0.05859 0.38281-0.16406 0.02734-0.06641 0.01953-0.17188 0.01953-0.23047 0-0.05469 0.01172-0.07031 0.03516-0.07031 0.03516-0.0039 0.04297 0.04297 0.04297 0.10938 0.0078 0.22656 0.0039 0.43359 0.0078 0.52734 0 0.04687 0.01953 0.21484 0.02734 0.42578 0 0.05859 0 0.10156-0.03516 0.10156-0.02734 0-0.03906-0.02344-0.04297-0.07813 0-0.04297-0.0039-0.07813-0.01563-0.12891-0.04294-0.12108-0.13278-0.15233-0.37497-0.14842l-2.7344 0.05078c-0.09375 0-0.13672-0.01172-0.13672-0.05469-0.0039-0.04687 0.04297-0.09766 0.08984-0.14844 0.25-0.28516 0.79688-0.85937 1.2305-1.3281 0.44922-0.49218 0.97266-0.99218 1.0508-1.0742v-0.01563zm0.79688-3.7148c0.64454-0.14843 0.76173-0.17187 0.89454-0.21093 0.14453-0.04297 0.20312-0.08984 0.20312-0.23828 0-0.03516-0.01172-0.10937-0.02344-0.16797-0.01172-0.04687-0.01172-0.07422 0.01953-0.08203 0.03125-0.0078 0.04297 0.02344 0.05859 0.08594 0.02734 0.11328 0.05078 0.23828 0.07422 0.34375 0.01953 0.11328 0.03516 0.21094 0.05078 0.26953 0.03125 0.13672 0.21875 0.98438 0.24219 1.0625 0.02734 0.07813 0.04687 0.14453 0.06641 0.17578 0.0078 0.01953 0.02734 0.04297 0.03125 0.06641 0.0039 0.01953-0.01172 0.02734-0.03125 0.03125-0.03125 0.0078-0.08594 0-0.28516 0.03125-0.04297 0.0039-0.23047 0.03516-0.28125 0.03906-0.02344 0-0.05078 0-0.05859-0.03125-0.0039-0.02734 0.01563-0.04297 0.05078-0.05078 0.03125-0.0078 0.10156-0.02734 0.14844-0.05859 0.07031-0.05078 0.10938-0.10156 0.08984-0.32031-0.0078-0.07422-0.10156-0.52344-0.12109-0.60938-0.0039-0.01953-0.01953-0.02344-0.04687-0.01953l-1.0703 0.24219c-0.03125 0.0078-0.04688 0.01563-0.03906 0.03906 0.01953 0.09375 0.12891 0.58203 0.16016 0.67969 0.03125 0.10156 0.05469 0.16016 0.10938 0.19141 0.03906 0.01953 0.0625 0.03125 0.07031 0.05469 0.0039 0.01563-0.0039 0.03125-0.02734 0.03516-0.02734 0.0078-0.09766 0.0039-0.31641 0.03516-0.08594 0.01563-0.25781 0.04297-0.28906 0.05078-0.03516 0.0039-0.08203 0.01563-0.08984-0.02344-0.0039-0.02734 0.0078-0.04297 0.03125-0.04687 0.04297-0.01172 0.09766-0.02344 0.14844-0.05078 0.07813-0.03906 0.12891-0.11328 0.11328-0.27344-0.01172-0.08203-0.10156-0.50781-0.125-0.60547-0.0039-0.02344-0.02344-0.02344-0.04687-0.01953l-0.33203 0.07813c-0.14453 0.03125-0.53516 0.11719-0.65625 0.14844-0.29297 0.07422-0.33984 0.15625-0.24219 0.58984 0.02344 0.10937 0.06641 0.28906 0.14062 0.38672 0.07422 0.09766 0.17578 0.12891 0.35547 0.12109 0.04687-0.0039 0.06641 0.0039 0.07422 0.03125 0.0078 0.03516-0.02734 0.04297-0.07031 0.05078-0.09766 0.02344-0.39063 0.05469-0.48047 0.05078-0.11719-0.0039-0.125-0.04297-0.16406-0.20312-0.07031-0.32031-0.11328-0.55469-0.14844-0.73828-0.03516-0.18359-0.05859-0.31641-0.08594-0.44531-0.01172-0.04687-0.03125-0.14062-0.05859-0.24219-0.02344-0.09766-0.05469-0.20312-0.07422-0.28906-0.01172-0.05469-0.0078-0.08984 0.02344-0.09375 0.01953-0.0078 0.03906 0.0078 0.04687 0.05859 0.01563 0.0625 0.03516 0.11328 0.05469 0.14844 0.03125 0.08203 0.13281 0.08203 0.25781 0.07031 0.18359-0.01953 0.51562-0.09375 0.90625-0.17969zm-2.8516-3.2617c0.18359-0.53906 0.58594-0.82812 0.97656-0.99219 0.27344-0.10938 0.77734-0.22266 1.2891 0.01563 0.38672 0.17969 0.70312 0.49609 0.94922 1.0938 0.10156 0.25 0.14844 0.40625 0.19922 0.60156 0.04297 0.16016 0.0625 0.30469 0.09766 0.42969 0.01563 0.04687 0.0039 0.07031-0.02344 0.08203-0.03125 0.01172-0.08203 0.01953-0.22656 0.07031-0.13672 0.04687-0.35547 0.14453-0.4375 0.16797-0.0625 0.01953-0.09766 0.02734-0.11328-0.01172-0.01172-0.03125 0.01563-0.05078 0.07422-0.07422 0.12109-0.05859 0.23828-0.16797 0.30078-0.3125 0.08594-0.19141 0.06641-0.54688-0.08594-0.91797-0.14453-0.35156-0.32812-0.54297-0.55859-0.65234-0.39062-0.18359-0.80078-0.10156-1.1914 0.05859-0.95312 0.39844-1.125 1.3203-0.90234 1.8594 0.14453 0.35938 0.27734 0.55859 0.52734 0.64453 0.10156 0.03516 0.24219 0.04297 0.32031 0.02734 0.06641-0.01563 0.08594-0.01563 0.10156 0.01953 0.01172 0.02734-0.01563 0.04687-0.04687 0.05859-0.04687 0.01953-0.41406 0.11719-0.56641 0.13281-0.07813 0.0078-0.10547 0-0.16016-0.05469-0.13281-0.13672-0.28516-0.42969-0.39062-0.6875-0.22656-0.55078-0.29688-1.0625-0.13281-1.5586m0.32422-2.7734c0.56641-0.33203 0.66797-0.39453 0.78516-0.47266 0.12109-0.08203 0.16406-0.16016 0.13281-0.25391-0.01172-0.04687-0.03516-0.09766-0.0625-0.14062-0.02344-0.03906-0.02734-0.06641 0-0.08594 0.02344-0.01172 0.05078 0.01563 0.08594 0.07422 0.08203 0.14453 0.20703 0.38672 0.27344 0.49609 0.05469 0.09375 0.19531 0.30469 0.28125 0.44922 0.02734 0.04687 0.03516 0.08203 0.01563 0.09766-0.03125 0.01562-0.05078 0-0.07422-0.03906s-0.04297-0.06641-0.07813-0.10547c-0.07422-0.08984-0.16016-0.08594-0.29297-0.01172-0.125 0.0625-0.22656 0.125-0.79688 0.46094l-0.65625 0.38672c-0.35938 0.21484-0.65625 0.39062-0.80859 0.5-0.09375 0.07031-0.14453 0.13672-0.09375 0.25781 0.02344 0.05859 0.0625 0.14453 0.09766 0.19922 0.02344 0.04297 0.02344 0.06641 0.0039 0.07813-0.02734 0.01563-0.05469-0.0078-0.07813-0.04687-0.14453-0.25-0.27344-0.49219-0.33203-0.59375-0.05078-0.08594-0.20312-0.31641-0.28906-0.46484-0.03125-0.05078-0.03125-0.08203-0.0078-0.09766 0.01953-0.01172 0.03906-0.0039 0.06641 0.04297 0.03125 0.05469 0.06641 0.09766 0.09375 0.125 0.05859 0.06641 0.13672 0.05078 0.25 0 0.16797-0.07422 0.46094-0.25 0.82422-0.46484zm-2.2422-2.5625c-0.03906 0.03125-0.04688 0.04687-0.03906 0.08203 0.03516 0.08594 0.10547 0.19922 0.17188 0.28125 0.10938 0.13672 0.16016 0.17188 0.25391 0.19531 0.15234 0.04297 0.38672 0.01563 0.66406-0.20703 0.48047-0.39063 0.36328-0.82031 0.20312-1.0195-0.06641-0.08594-0.12109-0.14453-0.16016-0.16797-0.02344-0.01953-0.04297-0.01563-0.07031 0.0039zm-0.05469-0.61719c0.51172-0.41406 0.60547-0.48828 0.70703-0.58594 0.10938-0.09766 0.14453-0.16797 0.07813-0.30078-0.01563-0.03125-0.05859-0.09375-0.09766-0.14062-0.02734-0.03516-0.03906-0.0625-0.01563-0.08203 0.02344-0.01562 0.05078 0 0.08984 0.05078 0.14453 0.17969 0.30469 0.40234 0.36328 0.47266 0.09375 0.11719 0.30859 0.36328 0.39062 0.46875 0.17188 0.21484 0.33594 0.46094 0.35938 0.74219 0.01172 0.14844-0.05469 0.42187-0.28125 0.60547-0.24609 0.20312-0.5625 0.28125-1.1133 0.16406-0.13672 0.60938-0.25 1.0859-0.29688 1.4531-0.04687 0.34766 0.04297 0.50781 0.07422 0.56641 0.02344 0.04297 0.04297 0.07422 0.06641 0.10156 0.01953 0.02734 0.02344 0.05078 0.0039 0.0625-0.02734 0.02344-0.05078 0.0039-0.08594-0.03516l-0.25781-0.32422c-0.15234-0.1875-0.20312-0.28906-0.22656-0.41406-0.03906-0.20703 0.01563-0.46484 0.125-0.86719 0.07813-0.28516 0.17969-0.625 0.19531-0.71094 0.0078-0.03125-0.0039-0.05469-0.02344-0.07813l-0.23047-0.30078c-0.01172-0.01953-0.02734-0.02344-0.05078-0.0078l-0.04688 0.03906c-0.3125 0.25391-0.57812 0.46875-0.70703 0.60156-0.08984 0.08984-0.14844 0.17188-0.07813 0.28125 0.03125 0.05859 0.08594 0.13672 0.11719 0.17969 0.02344 0.02734 0.02344 0.04687 0.0078 0.0625-0.02344 0.01953-0.05469 0-0.08984-0.04297-0.15625-0.19531-0.34766-0.45312-0.38672-0.50391-0.05469-0.06641-0.23438-0.27344-0.34375-0.40625-0.03516-0.04687-0.04297-0.07813-0.01953-0.09766 0.01563-0.01172 0.03906-0.0078 0.07031 0.03516 0.03906 0.05078 0.07813 0.08594 0.10938 0.10938 0.06641 0.05859 0.15625 0.01563 0.26562-0.05078 0.15625-0.09766 0.42188-0.3125 0.73047-0.56641zm-3.2852-3.1055c0.42578-0.50391 0.50781-0.59766 0.58984-0.70703 0.08984-0.11719 0.10937-0.19531 0.01953-0.3125-0.01953-0.02734-0.07422-0.07813-0.12109-0.11719-0.03516-0.03125-0.04687-0.05859-0.02734-0.07813 0.01953-0.02344 0.04687-0.01172 0.09766 0.03125 0.17187 0.15234 0.37109 0.33984 0.47266 0.42578 0.07422 0.06641 0.29297 0.23438 0.41016 0.33594 0.05078 0.04297 0.06641 0.07031 0.04687 0.09375-0.01953 0.02344-0.04297 0.01172-0.07813-0.01563-0.03516-0.03125-0.05859-0.04687-0.10156-0.07422-0.10547-0.05859-0.17969-0.02344-0.28516 0.08594-0.09375 0.09766-0.17578 0.19141-0.60547 0.69531l-0.39453 0.46094c-0.41016 0.48047-0.48438 0.76172-0.4375 1.0352 0.04687 0.25 0.18359 0.39062 0.29688 0.48828 0.14453 0.125 0.35938 0.23047 0.60547 0.21484 0.33594-0.02734 0.59766-0.31641 0.89062-0.65625l0.35156-0.41406c0.42969-0.5 0.50781-0.59375 0.59375-0.70312 0.08984-0.12109 0.10938-0.19531 0.01953-0.3125-0.02344-0.02734-0.07422-0.07813-0.10938-0.11328-0.03906-0.03125-0.05078-0.05469-0.03125-0.07422 0.01953-0.02344 0.04687-0.01172 0.09375 0.02734 0.16797 0.14453 0.36719 0.33203 0.37109 0.33594 0.03906 0.03516 0.25391 0.20313 0.38281 0.3125 0.04687 0.03906 0.0625 0.06641 0.04297 0.08984-0.01953 0.02344-0.04687 0.01172-0.08594-0.01953-0.03516-0.03125-0.05859-0.04687-0.10156-0.07422-0.10547-0.05859-0.17969-0.02734-0.28516 0.08594-0.09375 0.09766-0.17578 0.19141-0.60156 0.69141l-0.30469 0.35547c-0.3125 0.36719-0.68359 0.72266-1.1602 0.72266-0.40625 0-0.67578-0.16797-0.88672-0.35156-0.17578-0.14844-0.48437-0.42969-0.53516-0.85547-0.03906-0.29688 0.04297-0.64844 0.45312-1.1289zm-1.957-2.4765-0.5625-0.31641c-0.22266-0.11719-0.32422-0.15234-0.42578-0.10156-0.07422 0.03125-0.11719 0.06641-0.14062 0.09375-0.02734 0.02344-0.04687 0.03125-0.07031 0.01953-0.02344-0.01563-0.02344-0.03906 0.0039-0.08203 0.03516-0.05859 0.30469-0.35938 0.32812-0.38281 0.04297-0.04297 0.06641-0.05859 0.08984-0.04687 0.02734 0.01953 0.04297 0.07813 0.13281 0.14062 0.10156 0.07422 0.23828 0.16797 0.36328 0.23828l1.4805 0.875c0.11719 0.07031 0.20703 0.10938 0.26953 0.13281 0.0625 0.01953 0.09766 0.03125 0.10938 0.03906 0.02734 0.01563 0.01953 0.04297-0.01563 0.09766-0.04687 0.07812-0.20703 0.33203-0.26562 0.42969-0.02344 0.03516-0.04688 0.05469-0.06641 0.03906-0.03125-0.01563-0.02734-0.03906 0-0.09766l0.02344-0.04297c0.04687-0.10547 0.0078-0.26953-0.32031-0.47266l-0.46484-0.28906-0.89844 1.5391c-0.20312 0.34766-0.375 0.64453-0.45312 0.81641-0.04687 0.11328-0.07422 0.20703 0.03125 0.28906 0.04687 0.03906 0.125 0.09375 0.17969 0.12891 0.03906 0.02344 0.05078 0.04687 0.04297 0.0625-0.01563 0.02734-0.05469 0.01953-0.09375-0.0039-0.24609-0.14453-0.47656-0.29688-0.58203-0.35547-0.08594-0.05078-0.32812-0.17969-0.47656-0.26562-0.04687-0.03125-0.06641-0.05859-0.05078-0.08203 0.0078-0.01953 0.03125-0.02344 0.07422 0.0039 0.05859 0.03516 0.10547 0.05078 0.14453 0.0625 0.08594 0.03125 0.15625-0.03906 0.23047-0.14062 0.10938-0.14453 0.28126-0.44141 0.48438-0.78906zm-22.633 3.1602c-0.07422 0.01172-0.09766 0-0.14453-0.08203-0.12109-0.20703-0.23828-0.44141-0.26953-0.50391-0.03125-0.05859-0.04297-0.10547-0.01172-0.125 0.03125-0.01953 0.05469 0.01172 0.07422 0.04297 0.02734 0.04687 0.08984 0.11719 0.14453 0.17188 0.24609 0.22656 0.52734 0.19922 0.75781 0.05859 0.33594-0.19922 0.36328-0.52344 0.24609-0.72266-0.10938-0.18359-0.26562-0.32422-0.71875-0.38281l-0.25-0.03125c-0.60156-0.07813-0.89844-0.25781-1.0742-0.55859-0.24609-0.41406-0.07422-0.91406 0.44141-1.2227 0.24219-0.14453 0.42188-0.19922 0.53516-0.23047 0.03516-0.01172 0.0625-0.01172 0.07813 0.01563 0.02734 0.04687 0.07813 0.16406 0.25 0.45703 0.04687 0.08203 0.05469 0.11719 0.02344 0.13672-0.02344 0.01563-0.05078 0-0.07813-0.04297-0.01953-0.03516-0.10547-0.14062-0.24219-0.19141-0.09766-0.03906-0.26953-0.08594-0.51172 0.05859-0.27735 0.16406-0.35156 0.42578-0.21875 0.64844 0.10156 0.17188 0.26562 0.25391 0.71484 0.30469l0.15234 0.01563c0.64844 0.07422 0.96094 0.23828 1.1719 0.58984 0.12891 0.21875 0.19922 0.52734 0.03516 0.86328-0.11719 0.23047-0.30469 0.38672-0.5 0.50391-0.21875 0.12891-0.40234 0.20312-0.60547 0.22656m-2.25 0.03125c0.01563-0.01562 0.01172-0.02734 0-0.03516l-0.97266-0.59766c-0.01172-0.01172-0.03125-0.02344-0.03906-0.01563-0.01172 0.0078-0.0039 0.03125 0.0039 0.04687l0.35157 1.0859c0.0078 0.01562 0.01953 0.02344 0.03516 0.01172zm-0.55469 0.72266c-0.01953 0.01563-0.01953 0.02734-0.01172 0.05078l0.20703 0.63281c0.03125 0.11328 0.07813 0.21094 0.11328 0.25 0.04687 0.0625 0.11328 0.08203 0.21875-0.0039l0.05078-0.03906c0.03906-0.03516 0.05469-0.03516 0.07422-0.01563 0.01953 0.02734 0.0039 0.05078-0.03125 0.08203-0.10938 0.08594-0.26562 0.19141-0.36719 0.27734-0.03906 0.03125-0.21875 0.1875-0.39453 0.32812-0.04297 0.03516-0.07031 0.04687-0.08984 0.01953-0.01563-0.01953-0.0078-0.03906 0.01953-0.05859 0.03125-0.02734 0.07422-0.06641 0.09766-0.09375 0.14062-0.14453 0.11328-0.3125 0.04687-0.53516l-0.84766-2.8203c-0.03516-0.12891-0.04687-0.18359-0.01172-0.21094 0.03125-0.02344 0.07422-0.01172 0.16797 0.04297 0.23047 0.12109 1.875 1.0742 2.5039 1.418 0.37109 0.20312 0.50781 0.17187 0.59375 0.13281 0.05859-0.03125 0.11328-0.07031 0.15234-0.10156 0.02734-0.02344 0.04687-0.03125 0.06641-0.0078 0.01953 0.02734-0.0039 0.05859-0.12891 0.16016-0.125 0.09766-0.37109 0.29297-0.64844 0.50391-0.0625 0.04687-0.10156 0.07812-0.12109 0.05469-0.01563-0.01953-0.0078-0.03906 0.02344-0.06641 0.01953-0.02734 0.01563-0.07813-0.03125-0.10547l-0.84375-0.50391c-0.01953-0.01172-0.03906-0.01172-0.05469 0.0039zm-3.293 0.53516-0.42969 0.48047c-0.16406 0.19141-0.22266 0.28125-0.19531 0.39453 0.01563 0.07813 0.03906 0.12891 0.05859 0.16016s0.02344 0.05078 0.0039 0.07031c-0.01953 0.02344-0.04297 0.01172-0.07422-0.01953-0.05078-0.04687-0.28125-0.37891-0.30078-0.41016-0.03516-0.04687-0.04297-0.07422-0.02344-0.09375 0.01953-0.02734 0.08203-0.02734 0.16406-0.10156 0.09375-0.08203 0.21484-0.19922 0.3125-0.30078l1.1797-1.2539c0.09375-0.10156 0.15234-0.17969 0.1875-0.23438 0.03516-0.05469 0.05469-0.08594 0.06641-0.09766 0.01953-0.02344 0.04297-0.0078 0.08984 0.03516 0.06641 0.0625 0.27344 0.27734 0.35547 0.35547 0.03125 0.03516 0.04297 0.05859 0.02344 0.07813-0.02344 0.02344-0.04297 0.01563-0.09375-0.02344l-0.03906-0.03125c-0.08594-0.07031-0.25781-0.07031-0.52734 0.20703l-0.38281 0.38672 1.2891 1.2266c0.28906 0.27734 0.53906 0.51172 0.69141 0.625 0.09375 0.07422 0.18359 0.12109 0.28516 0.03516 0.04687-0.03516 0.12109-0.09766 0.16406-0.14844 0.03516-0.03516 0.05469-0.03906 0.07422-0.02734 0.01953 0.02344 0.0078 0.05859-0.02734 0.08984-0.19531 0.21094-0.39062 0.40234-0.47656 0.49219-0.06641 0.07031-0.24609 0.27734-0.36328 0.40625-0.03906 0.03906-0.07031 0.05469-0.09375 0.03125-0.01562-0.01172-0.01172-0.03516 0.02344-0.07422 0.04687-0.04688 0.07422-0.08984 0.09375-0.125 0.04687-0.07422-0.0039-0.16016-0.08594-0.25781-0.11719-0.14062-0.36719-0.375-0.65625-0.64844zm-1.0664 2.9297c-0.53125-0.39062-0.62891-0.46094-0.74609-0.53516-0.125-0.08203-0.21094-0.08984-0.28516-0.02734-0.03906 0.03516-0.07422 0.07813-0.10547 0.11719-0.02344 0.03906-0.04687 0.05078-0.07422 0.03125-0.02344-0.01563-0.0078-0.04687 0.03125-0.10547 0.09766-0.13281 0.26953-0.34766 0.34375-0.44922 0.0625-0.08594 0.20312-0.30078 0.30078-0.4375 0.03125-0.04297 0.0625-0.06641 0.08203-0.05078 0.02734 0.01953 0.01953 0.04687-0.0078 0.08203-0.02344 0.03516-0.04297 0.06641-0.06641 0.11328-0.05078 0.10547-0.01172 0.17969 0.10547 0.27344 0.10938 0.08984 0.20703 0.16406 0.73828 0.55469l0.61719 0.44922c0.33984 0.25 0.61328 0.45312 0.77734 0.55078 0.10156 0.05859 0.18359 0.07813 0.27344-0.01563 0.04297-0.04687 0.10547-0.11719 0.14453-0.17188 0.02734-0.03906 0.05078-0.04687 0.07031-0.03516 0.02344 0.01953 0.01172 0.05469-0.01563 0.09375-0.16797 0.23047-0.33984 0.44531-0.41016 0.53906-0.05859 0.08203-0.20703 0.3125-0.30859 0.45312-0.03516 0.04687-0.0625 0.0625-0.08594 0.04297-0.01953-0.01172-0.01953-0.03516 0.01172-0.07422 0.03906-0.05469 0.0625-0.10156 0.07813-0.13672 0.03516-0.08203-0.0078-0.14844-0.10156-0.23047-0.13672-0.125-0.41016-0.32812-0.75-0.57812zm0.09766 3.5977c-0.05859 0.04687-0.08594 0.04687-0.16797 0-0.20703-0.12109-0.42578-0.26562-0.48047-0.30078-0.05469-0.03516-0.09375-0.07031-0.07422-0.10156 0.01953-0.03516 0.05469-0.01953 0.08594 0 0.04687 0.02734 0.13672 0.05469 0.21094 0.07422 0.32813 0.07422 0.55469-0.08984 0.6875-0.32422 0.19141-0.34375 0.05469-0.64062-0.14453-0.75391-0.18359-0.10547-0.39062-0.14844-0.8125 0.02734l-0.23438 0.09766c-0.55859 0.23047-0.90234 0.22266-1.2109 0.05078-0.41406-0.23828-0.51562-0.75391-0.21484-1.2812 0.13672-0.24609 0.26562-0.38281 0.34766-0.46875 0.02734-0.02734 0.04687-0.03906 0.07422-0.02734 0.05078 0.02734 0.15234 0.10547 0.44531 0.27344 0.08203 0.04687 0.10547 0.07813 0.08984 0.10547-0.01563 0.02734-0.04687 0.02734-0.08984 0-0.03516-0.01953-0.16016-0.06641-0.30469-0.04297-0.10547 0.01563-0.28125 0.0625-0.41797 0.30859-0.16016 0.28125-0.09375 0.54297 0.13281 0.67187 0.17188 0.09766 0.35547 0.08594 0.76953-0.09375l0.14062-0.05859c0.60155-0.26173 0.95312-0.27735 1.3125-0.07423 0.21875 0.125 0.42969 0.35547 0.45312 0.73047 0.01172 0.25781-0.07422 0.48828-0.1875 0.69141-0.12109 0.21875-0.24609 0.375-0.41016 0.49609m-2.5508 1.8125c0.04297 0.01563 0.0625 0.01563 0.08594-0.01172 0.0625-0.07031 0.12109-0.19141 0.16016-0.29297 0.0625-0.16016 0.06641-0.21875 0.04297-0.3125-0.04297-0.15625-0.18359-0.34766-0.51562-0.47656-0.57422-0.22266-0.88672 0.09375-0.97656 0.33594-0.03906 0.10156-0.0625 0.17578-0.06641 0.21875-0.0039 0.03516 0.0078 0.04687 0.03906 0.05859zm-0.50391 0.35547c-0.61328-0.24219-0.72656-0.28516-0.85938-0.32813-0.14062-0.04297-0.21875-0.03516-0.29688 0.08594-0.02344 0.03125-0.05078 0.09766-0.07422 0.15625-0.01563 0.04297-0.03516 0.0625-0.0625 0.05469-0.02734-0.01172-0.02344-0.04688-0.0039-0.10547 0.08203-0.21484 0.19531-0.46484 0.22656-0.55078 0.05469-0.13672 0.16016-0.45313 0.21094-0.57813 0.09766-0.25391 0.22656-0.51953 0.46094-0.67969 0.12109-0.08594 0.38672-0.16797 0.66016-0.0625 0.29688 0.11719 0.52734 0.34766 0.69922 0.89062 0.58984-0.1875 1.0586-0.32812 1.4023-0.46875 0.32031-0.13672 0.41406-0.29297 0.44922-0.34766 0.02344-0.04297 0.04297-0.07813 0.05469-0.10938 0.01563-0.03125 0.03125-0.04297 0.05078-0.03516 0.03516 0.01172 0.03125 0.04297 0.01172 0.08984l-0.14844 0.38672c-0.08594 0.22656-0.14453 0.32031-0.24219 0.40625-0.16016 0.13672-0.41016 0.21875-0.80859 0.32422-0.28516 0.07422-0.63281 0.15625-0.71484 0.18359-0.03125 0.01172-0.04297 0.03516-0.05469 0.0625l-0.14454 0.35156c-0.0078 0.01953-0.0039 0.03516 0.01953 0.04687l0.05859 0.01953c0.375 0.14844 0.69141 0.26953 0.87109 0.31641 0.12109 0.03516 0.22266 0.04297 0.28516-0.07031 0.03125-0.05859 0.07422-0.14453 0.08984-0.19531 0.01563-0.03125 0.03125-0.04297 0.05078-0.03516 0.02734 0.01172 0.03125 0.04297 0.01172 0.09766-0.08984 0.23437-0.21875 0.53125-0.24219 0.58984-0.03125 0.07813-0.11719 0.33984-0.17969 0.50391-0.01953 0.05078-0.04297 0.07422-0.07031 0.0625-0.01953-0.0078-0.02734-0.02734-0.0078-0.07813 0.02344-0.05859 0.03125-0.11328 0.03906-0.14844 0.01563-0.08984-0.06641-0.14453-0.17578-0.20703-0.16406-0.08594-0.48437-0.21094-0.85547-0.35547zm-0.80078 3.1328c-0.64453-0.14062-0.76562-0.16406-0.90234-0.1875-0.14453-0.01953-0.22266 0-0.28125 0.13281-0.01563 0.03125-0.03516 0.10156-0.04687 0.16406-0.01172 0.04687-0.02344 0.07031-0.05469 0.0625-0.03125-0.0078-0.03125-0.03906-0.01953-0.10156 0.02734-0.11719 0.05859-0.23828 0.08203-0.34375 0.02734-0.10937 0.05078-0.20703 0.0625-0.26562 0.03125-0.13672 0.21094-0.98438 0.22266-1.0664 0.01172-0.08203 0.01563-0.15234 0.01563-0.1875 0-0.02344-0.0078-0.05078-0.0039-0.07422 0.0078-0.01953 0.02344-0.01953 0.04687-0.01562 0.02734 0.0039 0.07422 0.03906 0.26562 0.09375 0.04297 0.01172 0.22656 0.0625 0.27344 0.08203 0.02344 0.0078 0.04687 0.02344 0.03906 0.05078-0.0078 0.03125-0.02734 0.03516-0.06641 0.02734-0.03125-0.0078-0.10156-0.01953-0.16016-0.0078-0.08203 0.01172-0.14062 0.04297-0.21094 0.25-0.02344 0.07422-0.12891 0.51562-0.14844 0.60156-0.0039 0.02344 0.0078 0.03516 0.03906 0.03906l1.0703 0.23438c0.03125 0.0039 0.04687 0.0039 0.05469-0.01953 0.01953-0.09766 0.125-0.58594 0.13672-0.68359 0.01172-0.10547 0.01562-0.17188-0.01953-0.21875-0.02734-0.03906-0.04687-0.05859-0.04297-0.08203 0.0039-0.01563 0.01562-0.02734 0.04297-0.02344 0.02344 0.0078 0.08984 0.03906 0.30078 0.10156 0.08203 0.02344 0.25 0.07422 0.28125 0.07813 0.03125 0.0078 0.07812 0.01953 0.07031 0.05859-0.0078 0.02734-0.02344 0.03516-0.04687 0.02734-0.04297-0.0039-0.09766-0.01562-0.15625-0.01172-0.08594 0-0.16406 0.04687-0.21484 0.19922-0.02734 0.07813-0.12109 0.5-0.14062 0.60156-0.0039 0.02344 0.01172 0.03125 0.03516 0.03516l0.33594 0.07422c0.14452 0.03124 0.53124 0.11718 0.65624 0.14062 0.29297 0.05469 0.37109 0 0.46484-0.43359 0.02344-0.11328 0.0625-0.28906 0.03516-0.41016s-0.10547-0.19531-0.27344-0.26172c-0.04297-0.01563-0.05859-0.03125-0.05469-0.05859 0.0078-0.03516 0.04297-0.02734 0.08594-0.01953 0.09766 0.02344 0.37891 0.11719 0.45703 0.15625 0.10547 0.05469 0.09766 0.09375 0.0625 0.25391-0.07031 0.32031-0.125 0.55469-0.17188 0.73437-0.04687 0.18359-0.07813 0.3125-0.10547 0.44141-0.01172 0.04687-0.03125 0.14062-0.04687 0.24219-0.02344 0.09766-0.03906 0.21094-0.05469 0.29688-0.01172 0.05469-0.03125 0.08203-0.0625 0.07422-0.01953-0.0039-0.03125-0.02344-0.01953-0.07422 0.01563-0.0625 0.01953-0.11719 0.01563-0.15625 0.0039-0.08984-0.08594-0.12891-0.20703-0.17578-0.17188-0.05859-0.50781-0.12891-0.89844-0.21484zm-1.2266 3.8516c-0.24609 0.08594-0.29687 0.15625-0.35156 0.30859-0.01953 0.06641-0.02344 0.13281-0.02734 0.16797-0.0039 0.04297-0.01563 0.05469-0.04297 0.05078-0.03516 0-0.03516-0.05078-0.03125-0.11328 0.01562-0.23047 0.04297-0.47656 0.05469-0.63281 0.0039-0.10547 0.0039-0.31641 0.01953-0.53516 0.0039-0.05078 0.01563-0.09766 0.04687-0.09766 0.03125 0.0039 0.03516 0.03125 0.03125 0.07031 0 0.07031 0 0.13672 0.02344 0.17188 0.01953 0.03125 0.04687 0.04687 0.08594 0.04687 0.05859 0.0039 0.17969-0.02734 0.33984-0.07812l2.0117-0.62109v-0.01563c-0.46094-0.21875-1.8203-0.875-2.0977-0.99609-0.05469-0.02344-0.12109-0.04687-0.16016-0.04687-0.03516-0.0039-0.07031 0.01172-0.08594 0.05078-0.01953 0.05078-0.02734 0.11328-0.03125 0.17188-0.0039 0.03906-0.0078 0.07422-0.03906 0.07031-0.03516 0-0.03906-0.04297-0.03516-0.125 0.01172-0.21484 0.03906-0.39844 0.03906-0.45312 0.0078-0.07422 0.0078-0.28125 0.01563-0.41016 0.0039-0.05859 0.01562-0.08984 0.04687-0.08984 0.02734 0.0039 0.03516 0.03125 0.03125 0.07422 0 0.04297-0.0078 0.13281 0.03906 0.21484 0.03516 0.05859 0.10547 0.12891 0.375 0.26172 0.39453 0.19531 0.62109 0.32812 1.1367 0.59766 0.61719 0.32031 1.0742 0.55469 1.2852 0.66406 0.24219 0.12891 0.30859 0.16016 0.30469 0.21875 0 0.05859-0.0625 0.07813-0.27344 0.14844zm0.92578 1.957c-0.65625 0.03906-0.77734 0.04687-0.91406 0.06641-0.14844 0.01563-0.21875 0.06641-0.23438 0.16016-0.01172 0.05078-0.01172 0.10547-0.0078 0.16016 0.0039 0.04297-0.0039 0.06641-0.03906 0.07031-0.02734 0.0039-0.03516-0.03125-0.04297-0.10156-0.0078-0.16406-0.01172-0.44141-0.01953-0.56641-0.0078-0.10547-0.03516-0.36328-0.04687-0.52734-0.0039-0.05859 0.0039-0.09375 0.02734-0.09375 0.03516-0.0039 0.04687 0.02344 0.05078 0.06641 0 0.04297 0.0078 0.07813 0.01953 0.12891 0.02734 0.11719 0.10547 0.14844 0.25781 0.14453 0.13672 0 0.25781-0.0078 0.91406-0.04687l0.76562-0.05078c0.41797-0.02734 0.75781-0.04687 0.94531-0.07813 0.11328-0.01953 0.19141-0.05469 0.19922-0.1875 0.0039-0.05859 0.0078-0.15625 0.0039-0.21875-0.0039-0.05078 0.0078-0.07422 0.03125-0.07422 0.02734-0.0039 0.04297 0.03125 0.04687 0.07813 0.01953 0.28906 0.02344 0.5625 0.03125 0.67969 0.0039 0.10156 0.03516 0.375 0.04687 0.54688 0.0039 0.05469-0.0078 0.08594-0.03906 0.08984-0.01953 0-0.03516-0.01563-0.03906-0.06641-0.0039-0.06641-0.01563-0.11719-0.02734-0.15625-0.01953-0.08594-0.09766-0.10938-0.22266-0.11328-0.18359-0.0078-0.52344 0.01172-0.94531 0.03906zm2.0898 3.8906c0.32812-0.08203 0.42969-0.16016 0.44141-0.25391 0.0078-0.07812-0.0078-0.15625-0.01953-0.22656-0.01172-0.04687-0.0078-0.07422 0.01563-0.07813 0.03516-0.0078 0.05078 0.02734 0.06641 0.08594 0.05859 0.27734 0.08203 0.44922 0.10156 0.53125 0.0078 0.03906 0.0625 0.23438 0.11328 0.45703 0.01172 0.05469 0.01562 0.09375-0.02344 0.10156-0.02344 0.0078-0.03906-0.01563-0.04687-0.05859-0.01172-0.05469-0.03516-0.13281-0.0625-0.1875-0.05859-0.10156-0.1875-0.09375-0.55469-0.01562l-2.5156 0.51172c-0.08203 0.01953-0.14453 0.01953-0.15625-0.02344-0.0078-0.04297 0.03906-0.09375 0.09766-0.18359 0.04297-0.0625 0.59375-0.86328 1.0703-1.6172 0.22656-0.35547 0.71094-1.0625 0.76172-1.1484l-0.0039-0.02344-1.8906 0.46484c-0.25781 0.05859-0.33203 0.11328-0.35156 0.22656-0.01172 0.07031 0.01172 0.17188 0.02344 0.23047 0.01172 0.05078 0.0039 0.07031-0.02344 0.07812-0.03125 0.0078-0.04687-0.03906-0.0625-0.10156-0.04687-0.22266-0.07813-0.42969-0.09766-0.51953-0.01172-0.04687-0.05859-0.20312-0.10547-0.41406-0.01172-0.05469-0.01563-0.09766 0.01953-0.10547 0.02344-0.0039 0.04297 0.01562 0.05469 0.07031 0.0078 0.03906 0.01563 0.07422 0.03906 0.12109 0.05859 0.11328 0.15625 0.125 0.39453 0.07813l2.6797-0.53906c0.09375-0.02344 0.13672-0.01172 0.14453 0.02344 0.0078 0.04687-0.02734 0.10938-0.0625 0.16797-0.19531 0.32031-0.62891 0.98828-0.96875 1.5273-0.35547 0.56641-0.78125 1.1523-0.84766 1.2461l0.0039 0.01172zm0.16797 4.4492c-0.60547 0.25781-0.71875 0.30859-0.84375 0.37109-0.12891 0.06641-0.17969 0.125-0.15234 0.26953 0.0078 0.03516 0.03125 0.10547 0.05469 0.16016 0.01953 0.04297 0.02344 0.07422-0.0078 0.08203-0.02734 0.01563-0.04688-0.0078-0.07422-0.07031-0.08984-0.21094-0.18359-0.46875-0.23438-0.58984-0.04297-0.09375-0.16016-0.34375-0.22266-0.48828-0.02734-0.05859-0.02734-0.08984 0-0.10156 0.02734-0.01172 0.04687 0.0078 0.0625 0.04687 0.01562 0.04297 0.03125 0.06641 0.05859 0.11328 0.06641 0.09766 0.14844 0.10156 0.29297 0.05078 0.12891-0.04688 0.24219-0.09766 0.84766-0.35547l0.55469-0.24219c0.57812-0.25 0.77344-0.46875 0.84766-0.73438 0.07031-0.24219 0.0078-0.43359-0.05078-0.57031-0.07423-0.17578-0.22267-0.36718-0.44923-0.45702-0.3125-0.12891-0.67578 0.01563-1.0859 0.19141l-0.5 0.21484c-0.60547 0.26172-0.71484 0.30859-0.83984 0.37109-0.13281 0.06641-0.17969 0.125-0.15234 0.26953 0.0039 0.03516 0.03125 0.10547 0.05078 0.14844 0.01563 0.04297 0.01953 0.07422-0.0078 0.08594-0.02734 0.01172-0.04687-0.01562-0.07422-0.07031-0.08594-0.20312-0.17969-0.46094-0.18359-0.46484-0.01954-0.05079-0.14064-0.29688-0.20704-0.44922-0.02344-0.05859-0.02734-0.08984 0-0.10156 0.03125-0.01172 0.04687 0.0078 0.06641 0.05469 0.01953 0.04688 0.03516 0.07031 0.0625 0.11328 0.06641 0.09766 0.14844 0.10156 0.29297 0.05078 0.12891-0.04687 0.24219-0.09766 0.84375-0.35547l0.42969-0.18359c0.44141-0.19141 0.92969-0.34766 1.3594-0.13672 0.36328 0.17969 0.53125 0.44922 0.64062 0.70703 0.08984 0.21484 0.24219 0.60156 0.10547 1.0078-0.09766 0.28516-0.32812 0.5625-0.90625 0.8125z" fill="#fff"/>
 </g>
</svg>
